M48
;DRILL file {KiCad 4.0.7} date 10/10/18 21:00:30
;FORMAT={-:-/ absolute / inch / decimal}
FMAT,2
INCH,TZ
T1C0.016
T2C0.024
T3C0.039
T4C0.040
T5C0.051
T6C0.157
T7C0.158
%
G90
G05
M72
T1
X5.905Y-5.592
X6.053Y-5.95
X6.054Y-5.995
X6.192Y-7.086
X6.232Y-5.947
X6.232Y-6.002
X6.431Y-5.572
X6.436Y-6.441
X6.436Y-6.534
X6.624Y-6.071
X6.637Y-5.4
X6.725Y-6.515
X6.738Y-5.372
X6.833Y-5.423
X7.032Y-6.745
T2
X5.786Y-6.059
X6.813Y-5.7923
X6.906Y-6.43
X6.908Y-6.149
X6.9587Y-5.7923
X7.0246Y-5.7264
T3
X7.5984Y-6.9185
X7.5984Y-7.0185
T4
X5.7384Y-5.0291
X5.7384Y-5.1291
X5.8384Y-5.0291
X5.8384Y-5.1291
X5.9384Y-5.0291
X5.9384Y-5.1291
X6.0384Y-5.0291
X6.0384Y-5.1291
X6.1384Y-5.0291
X6.1384Y-5.1291
X6.2384Y-5.0291
X6.2384Y-5.1291
X6.3384Y-5.0291
X6.3384Y-5.1291
X6.4384Y-5.0291
X6.4384Y-5.1291
X6.5384Y-5.0291
X6.5384Y-5.1291
X6.6384Y-5.0291
X6.6384Y-5.1291
X6.7384Y-5.0291
X6.7384Y-5.1291
X6.8384Y-5.0291
X6.8384Y-5.1291
X6.9384Y-5.0291
X6.9384Y-5.1291
T5
X5.9843Y-6.9094
X6.1811Y-6.9094
X6.378Y-6.9094
X6.8307Y-6.9094
X7.0276Y-6.9094
X7.2244Y-6.9094
T6
X5.5502Y-5.0689
T7
X5.5502Y-7.002
T0
M30
