G04 #@! TF.FileFunction,Soldermask,Top*
%FSLAX46Y46*%
G04 Gerber Fmt 4.6, Leading zero omitted, Abs format (unit mm)*
G04 Created by KiCad (PCBNEW 4.0.7) date 10/10/18 21:00:25*
%MOMM*%
%LPD*%
G01*
G04 APERTURE LIST*
%ADD10C,0.150000*%
%ADD11R,1.727200X1.727200*%
%ADD12O,1.727200X1.727200*%
%ADD13R,1.498600X1.300480*%
%ADD14C,2.500000*%
%ADD15R,2.199640X1.524000*%
%ADD16O,2.199640X1.524000*%
%ADD17R,1.795780X2.697480*%
%ADD18R,1.300480X1.498600*%
%ADD19R,0.551180X1.430020*%
%ADD20R,1.998980X0.599440*%
%ADD21R,5.499100X1.998980*%
G04 APERTURE END LIST*
D10*
D11*
X145755360Y-130279140D03*
D12*
X145755360Y-127739140D03*
X148295360Y-130279140D03*
X148295360Y-127739140D03*
X150835360Y-130279140D03*
X150835360Y-127739140D03*
X153375360Y-130279140D03*
X153375360Y-127739140D03*
X155915360Y-130279140D03*
X155915360Y-127739140D03*
X158455360Y-130279140D03*
X158455360Y-127739140D03*
X160995360Y-130279140D03*
X160995360Y-127739140D03*
X163535360Y-130279140D03*
X163535360Y-127739140D03*
X166075360Y-130279140D03*
X166075360Y-127739140D03*
X168615360Y-130279140D03*
X168615360Y-127739140D03*
X171155360Y-130279140D03*
X171155360Y-127739140D03*
X173695360Y-130279140D03*
X173695360Y-127739140D03*
X176235360Y-130279140D03*
X176235360Y-127739140D03*
D13*
X161500000Y-145452500D03*
X161500000Y-143547500D03*
X159000000Y-161547500D03*
X159000000Y-163452500D03*
X150000000Y-161547500D03*
X150000000Y-163452500D03*
X173191400Y-158333500D03*
X173191400Y-156428500D03*
D14*
X162000000Y-175500000D03*
X152000000Y-175500000D03*
X157000000Y-175500000D03*
X183500000Y-175500000D03*
X173500000Y-175500000D03*
X178500000Y-175500000D03*
D15*
X193000000Y-178270000D03*
D16*
X193000000Y-175730000D03*
D17*
X188998600Y-145500000D03*
X186001400Y-145500000D03*
X188998600Y-152000000D03*
X186001400Y-152000000D03*
X188998600Y-158500000D03*
X186001400Y-158500000D03*
D18*
X147047500Y-136500000D03*
X148952500Y-136500000D03*
D13*
X170191400Y-156428500D03*
X170191400Y-158333500D03*
X167191400Y-158333500D03*
X167191400Y-156428500D03*
X193000000Y-170047500D03*
X193000000Y-171952500D03*
D18*
X191547500Y-145500000D03*
X193452500Y-145500000D03*
X191547500Y-152000000D03*
X193452500Y-152000000D03*
X191547500Y-158500000D03*
X193452500Y-158500000D03*
D19*
X147420000Y-149310760D03*
X148690000Y-149310760D03*
X149960000Y-149310760D03*
X151230000Y-149310760D03*
X152500000Y-149310760D03*
X153770000Y-149310760D03*
X155040000Y-149310760D03*
X156310000Y-149310760D03*
X157580000Y-149310760D03*
X157580000Y-139689240D03*
X156310000Y-139689240D03*
X155040000Y-139689240D03*
X153770000Y-139689240D03*
X152500000Y-139689240D03*
X151230000Y-139689240D03*
X149960000Y-139689240D03*
X148690000Y-139689240D03*
X147420000Y-139689240D03*
D20*
X172794000Y-165905000D03*
X172794000Y-164635000D03*
X172794000Y-163365000D03*
X172794000Y-162095000D03*
X167206000Y-162095000D03*
X167206000Y-163365000D03*
X167206000Y-164635000D03*
X167206000Y-165905000D03*
D21*
X149750200Y-157000000D03*
X159249800Y-157000000D03*
M02*
