G04 #@! TF.FileFunction,Copper,L1,Top,Signal*
%FSLAX46Y46*%
G04 Gerber Fmt 4.6, Leading zero omitted, Abs format (unit mm)*
G04 Created by KiCad (PCBNEW 4.0.7) date 10/10/18 21:00:25*
%MOMM*%
%LPD*%
G01*
G04 APERTURE LIST*
%ADD10C,0.150000*%
%ADD11R,1.727200X1.727200*%
%ADD12O,1.727200X1.727200*%
%ADD13R,1.498600X1.300480*%
%ADD14C,2.500000*%
%ADD15R,2.199640X1.524000*%
%ADD16O,2.199640X1.524000*%
%ADD17R,1.795780X2.697480*%
%ADD18R,1.300480X1.498600*%
%ADD19R,0.551180X1.430020*%
%ADD20R,1.998980X0.599440*%
%ADD21R,5.499100X1.998980*%
%ADD22C,4.000000*%
%ADD23C,4.000500*%
%ADD24C,1.000000*%
%ADD25C,0.800000*%
%ADD26C,0.500000*%
%ADD27C,0.200000*%
%ADD28C,0.254000*%
G04 APERTURE END LIST*
D10*
D11*
X145755360Y-130279140D03*
D12*
X145755360Y-127739140D03*
X148295360Y-130279140D03*
X148295360Y-127739140D03*
X150835360Y-130279140D03*
X150835360Y-127739140D03*
X153375360Y-130279140D03*
X153375360Y-127739140D03*
X155915360Y-130279140D03*
X155915360Y-127739140D03*
X158455360Y-130279140D03*
X158455360Y-127739140D03*
X160995360Y-130279140D03*
X160995360Y-127739140D03*
X163535360Y-130279140D03*
X163535360Y-127739140D03*
X166075360Y-130279140D03*
X166075360Y-127739140D03*
X168615360Y-130279140D03*
X168615360Y-127739140D03*
X171155360Y-130279140D03*
X171155360Y-127739140D03*
X173695360Y-130279140D03*
X173695360Y-127739140D03*
X176235360Y-130279140D03*
X176235360Y-127739140D03*
D13*
X161500000Y-145452500D03*
X161500000Y-143547500D03*
X159000000Y-161547500D03*
X159000000Y-163452500D03*
X150000000Y-161547500D03*
X150000000Y-163452500D03*
X173191400Y-158333500D03*
X173191400Y-156428500D03*
D14*
X162000000Y-175500000D03*
X152000000Y-175500000D03*
X157000000Y-175500000D03*
X183500000Y-175500000D03*
X173500000Y-175500000D03*
X178500000Y-175500000D03*
D15*
X193000000Y-178270000D03*
D16*
X193000000Y-175730000D03*
D17*
X188998600Y-145500000D03*
X186001400Y-145500000D03*
X188998600Y-152000000D03*
X186001400Y-152000000D03*
X188998600Y-158500000D03*
X186001400Y-158500000D03*
D18*
X147047500Y-136500000D03*
X148952500Y-136500000D03*
D13*
X170191400Y-156428500D03*
X170191400Y-158333500D03*
X167191400Y-158333500D03*
X167191400Y-156428500D03*
X193000000Y-170047500D03*
X193000000Y-171952500D03*
D18*
X191547500Y-145500000D03*
X193452500Y-145500000D03*
X191547500Y-152000000D03*
X193452500Y-152000000D03*
X191547500Y-158500000D03*
X193452500Y-158500000D03*
D19*
X147420000Y-149310760D03*
X148690000Y-149310760D03*
X149960000Y-149310760D03*
X151230000Y-149310760D03*
X152500000Y-149310760D03*
X153770000Y-149310760D03*
X155040000Y-149310760D03*
X156310000Y-149310760D03*
X157580000Y-149310760D03*
X157580000Y-139689240D03*
X156310000Y-139689240D03*
X155040000Y-139689240D03*
X153770000Y-139689240D03*
X152500000Y-139689240D03*
X151230000Y-139689240D03*
X149960000Y-139689240D03*
X148690000Y-139689240D03*
X147420000Y-139689240D03*
D20*
X172794000Y-165905000D03*
X172794000Y-164635000D03*
X172794000Y-163365000D03*
X172794000Y-162095000D03*
X167206000Y-162095000D03*
X167206000Y-163365000D03*
X167206000Y-164635000D03*
X167206000Y-165905000D03*
D21*
X149750200Y-157000000D03*
X159249800Y-157000000D03*
D22*
X140975000Y-128750000D03*
D23*
X140975000Y-177850000D03*
D24*
X178425000Y-145450000D03*
X146964400Y-153898600D03*
X175463200Y-156184600D03*
X175412400Y-163322000D03*
X173050000Y-147125000D03*
X176750000Y-147125000D03*
D25*
X163347400Y-141528800D03*
X170815000Y-165481000D03*
X168249600Y-154203400D03*
X158292800Y-152450800D03*
X153771600Y-152273000D03*
X168579800Y-137160000D03*
X171145200Y-136448800D03*
X173558200Y-137744200D03*
X149987000Y-142036800D03*
X178612800Y-171323000D03*
X157276800Y-179984400D03*
X163474400Y-165963600D03*
X163474400Y-163601400D03*
X153746200Y-151130000D03*
X158292800Y-151053800D03*
D26*
X178475000Y-145500000D02*
X186001400Y-145500000D01*
X178425000Y-145450000D02*
X178475000Y-145500000D01*
X145755360Y-127739140D02*
X144701260Y-127739140D01*
X144246600Y-151180800D02*
X146964400Y-153898600D01*
X144246600Y-128193800D02*
X144246600Y-151180800D01*
X144701260Y-127739140D02*
X144246600Y-128193800D01*
X172794000Y-163365000D02*
X175369400Y-163365000D01*
X175219300Y-156428500D02*
X173191400Y-156428500D01*
X175463200Y-156184600D02*
X175219300Y-156428500D01*
X175369400Y-163365000D02*
X175412400Y-163322000D01*
D27*
X167206000Y-165905000D02*
X168395000Y-165905000D01*
X169665000Y-164635000D02*
X172794000Y-164635000D01*
X168395000Y-165905000D02*
X169665000Y-164635000D01*
X173191400Y-158333500D02*
X176265900Y-158333500D01*
X176606200Y-158673800D02*
X176606200Y-166370000D01*
X176265900Y-158333500D02*
X176606200Y-158673800D01*
X173191400Y-158333500D02*
X170191400Y-158333500D01*
X193452500Y-145500000D02*
X193452500Y-152000000D01*
X193452500Y-158500000D02*
X193452500Y-152000000D01*
X172794000Y-164635000D02*
X174871200Y-164635000D01*
X174871200Y-164635000D02*
X176606200Y-166370000D01*
X176606200Y-166370000D02*
X176606200Y-172186600D01*
X162000000Y-175500000D02*
X162000000Y-174118200D01*
X180339000Y-172339000D02*
X183500000Y-175500000D01*
X163779200Y-172339000D02*
X180339000Y-172339000D01*
X162000000Y-174118200D02*
X163779200Y-172339000D01*
X150000000Y-163452500D02*
X159000000Y-163452500D01*
X161500000Y-145452500D02*
X161500000Y-147465600D01*
X159654840Y-149310760D02*
X157580000Y-149310760D01*
X161500000Y-147465600D02*
X159654840Y-149310760D01*
D26*
X186001400Y-152000000D02*
X181625000Y-152000000D01*
X162322500Y-143547500D02*
X161500000Y-143547500D01*
X165975000Y-147200000D02*
X162322500Y-143547500D01*
X172975000Y-147200000D02*
X165975000Y-147200000D01*
X173050000Y-147125000D02*
X172975000Y-147200000D01*
X181625000Y-152000000D02*
X176750000Y-147125000D01*
X161500000Y-143547500D02*
X148881500Y-143547500D01*
X147420000Y-142086000D02*
X147420000Y-139689240D01*
X148881500Y-143547500D02*
X147420000Y-142086000D01*
X147047500Y-136500000D02*
X147047500Y-136455700D01*
X147047500Y-136455700D02*
X145755360Y-135163560D01*
X145755360Y-135163560D02*
X145755360Y-130279140D01*
X147047500Y-136500000D02*
X147047500Y-138335300D01*
X147420000Y-138707800D02*
X147420000Y-139689240D01*
X147047500Y-138335300D02*
X147420000Y-138707800D01*
D27*
X153375360Y-130279140D02*
X153375360Y-131328160D01*
X175006000Y-147504600D02*
X186001400Y-158500000D01*
X175006000Y-136321800D02*
X175006000Y-147504600D01*
X173837600Y-135153400D02*
X175006000Y-136321800D01*
X157200600Y-135153400D02*
X173837600Y-135153400D01*
X153375360Y-131328160D02*
X157200600Y-135153400D01*
X186001400Y-158500000D02*
X185347800Y-158500000D01*
X153375360Y-130279140D02*
X153375360Y-130896360D01*
X155040000Y-139689240D02*
X155040000Y-140968400D01*
X155600400Y-141528800D02*
X163347400Y-141528800D01*
X155040000Y-140968400D02*
X155600400Y-141528800D01*
X147420000Y-149310760D02*
X147420000Y-150874400D01*
X171239000Y-165905000D02*
X172794000Y-165905000D01*
X170815000Y-165481000D02*
X171239000Y-165905000D01*
X166370000Y-152323800D02*
X168249600Y-154203400D01*
X158419800Y-152323800D02*
X166370000Y-152323800D01*
X158292800Y-152450800D02*
X158419800Y-152323800D01*
X148818600Y-152273000D02*
X153771600Y-152273000D01*
X147420000Y-150874400D02*
X148818600Y-152273000D01*
X152500000Y-139689240D02*
X152500000Y-139066600D01*
X152500000Y-139066600D02*
X154076400Y-137490200D01*
X154076400Y-137490200D02*
X168249600Y-137490200D01*
X168249600Y-137490200D02*
X168579800Y-137160000D01*
X151230000Y-139689240D02*
X151230000Y-138482400D01*
X167513000Y-136448800D02*
X171145200Y-136448800D01*
X167157400Y-136804400D02*
X167513000Y-136448800D01*
X152908000Y-136804400D02*
X167157400Y-136804400D01*
X151230000Y-138482400D02*
X152908000Y-136804400D01*
X153770000Y-139689240D02*
X153770000Y-139015800D01*
X153770000Y-139015800D02*
X154787600Y-137998200D01*
X154787600Y-137998200D02*
X173304200Y-137998200D01*
X173304200Y-137998200D02*
X173558200Y-137744200D01*
X149987000Y-142036800D02*
X149960000Y-142009800D01*
X149960000Y-142009800D02*
X149960000Y-139689240D01*
X159000000Y-161547500D02*
X159000000Y-157249800D01*
X159000000Y-157249800D02*
X159249800Y-157000000D01*
X159249800Y-157000000D02*
X158600200Y-157000000D01*
X158600200Y-157000000D02*
X156310000Y-154709800D01*
X156310000Y-154709800D02*
X156310000Y-149310760D01*
X150000000Y-161547500D02*
X150000000Y-157249800D01*
X150000000Y-157249800D02*
X149750200Y-157000000D01*
X155040000Y-149310760D02*
X155040000Y-156135400D01*
X154175400Y-157000000D02*
X149750200Y-157000000D01*
X155040000Y-156135400D02*
X154175400Y-157000000D01*
X193000000Y-170047500D02*
X179888300Y-170047500D01*
X179888300Y-170047500D02*
X178612800Y-171323000D01*
X173500000Y-175500000D02*
X171006800Y-175500000D01*
X155544600Y-179044600D02*
X152000000Y-175500000D01*
X167462200Y-179044600D02*
X155544600Y-179044600D01*
X171006800Y-175500000D02*
X167462200Y-179044600D01*
X167206000Y-164635000D02*
X163380600Y-164635000D01*
X152000000Y-170249800D02*
X152000000Y-175500000D01*
X154508200Y-167741600D02*
X152000000Y-170249800D01*
X160274000Y-167741600D02*
X154508200Y-167741600D01*
X163380600Y-164635000D02*
X160274000Y-167741600D01*
X178500000Y-175500000D02*
X177763200Y-175500000D01*
X177763200Y-175500000D02*
X173278800Y-179984400D01*
X173278800Y-179984400D02*
X157276800Y-179984400D01*
X167206000Y-163365000D02*
X163710800Y-163365000D01*
X157000000Y-172438000D02*
X157000000Y-175500000D01*
X163474400Y-165963600D02*
X157000000Y-172438000D01*
X163710800Y-163365000D02*
X163474400Y-163601400D01*
X193000000Y-175730000D02*
X193000000Y-171952500D01*
X191547500Y-145500000D02*
X188998600Y-145500000D01*
X191547500Y-152000000D02*
X188998600Y-152000000D01*
X191547500Y-158500000D02*
X188998600Y-158500000D01*
X148952500Y-136500000D02*
X148952500Y-138284500D01*
X148690000Y-138547000D02*
X148690000Y-139689240D01*
X148952500Y-138284500D02*
X148690000Y-138547000D01*
X170191400Y-156428500D02*
X170191400Y-154595800D01*
X148690000Y-150722000D02*
X148690000Y-149310760D01*
X149021800Y-151053800D02*
X148690000Y-150722000D01*
X153670000Y-151053800D02*
X149021800Y-151053800D01*
X153746200Y-151130000D02*
X153670000Y-151053800D01*
X166649400Y-151053800D02*
X158292800Y-151053800D01*
X170191400Y-154595800D02*
X166649400Y-151053800D01*
X170191400Y-156428500D02*
X167191400Y-156428500D01*
X167191400Y-158333500D02*
X167191400Y-158707800D01*
X167191400Y-158707800D02*
X170578600Y-162095000D01*
X170578600Y-162095000D02*
X172794000Y-162095000D01*
D28*
G36*
X178540000Y-140500000D02*
X178594046Y-140771705D01*
X178747954Y-141002046D01*
X178978295Y-141155954D01*
X179250000Y-141210000D01*
X195790000Y-141210000D01*
X195790000Y-180290000D01*
X174012646Y-180290000D01*
X177318295Y-176984352D01*
X177430839Y-177097093D01*
X178123405Y-177384672D01*
X178873305Y-177385326D01*
X179566372Y-177098957D01*
X179832472Y-176833320D01*
X182346285Y-176833320D01*
X182475533Y-177126123D01*
X183175806Y-177394388D01*
X183925435Y-177374250D01*
X184524467Y-177126123D01*
X184653715Y-176833320D01*
X183500000Y-175679605D01*
X182346285Y-176833320D01*
X179832472Y-176833320D01*
X180097093Y-176569161D01*
X180384672Y-175876595D01*
X180385283Y-175175806D01*
X181605612Y-175175806D01*
X181625750Y-175925435D01*
X181873877Y-176524467D01*
X182166680Y-176653715D01*
X183320395Y-175500000D01*
X183679605Y-175500000D01*
X184833320Y-176653715D01*
X185126123Y-176524467D01*
X185394388Y-175824194D01*
X185374250Y-175074565D01*
X185126123Y-174475533D01*
X184833320Y-174346285D01*
X183679605Y-175500000D01*
X183320395Y-175500000D01*
X182166680Y-174346285D01*
X181873877Y-174475533D01*
X181605612Y-175175806D01*
X180385283Y-175175806D01*
X180385326Y-175126695D01*
X180098957Y-174433628D01*
X179832475Y-174166680D01*
X182346285Y-174166680D01*
X183500000Y-175320395D01*
X184653715Y-174166680D01*
X184524467Y-173873877D01*
X183824194Y-173605612D01*
X183074565Y-173625750D01*
X182475533Y-173873877D01*
X182346285Y-174166680D01*
X179832475Y-174166680D01*
X179569161Y-173902907D01*
X178876595Y-173615328D01*
X178126695Y-173614674D01*
X177433628Y-173901043D01*
X176902907Y-174430839D01*
X176615328Y-175123405D01*
X176614905Y-175608849D01*
X172974354Y-179249400D01*
X168296846Y-179249400D01*
X171311247Y-176235000D01*
X171764123Y-176235000D01*
X171901043Y-176566372D01*
X172430839Y-177097093D01*
X173123405Y-177384672D01*
X173873305Y-177385326D01*
X174566372Y-177098957D01*
X175097093Y-176569161D01*
X175384672Y-175876595D01*
X175385326Y-175126695D01*
X175098957Y-174433628D01*
X174569161Y-173902907D01*
X173876595Y-173615328D01*
X173126695Y-173614674D01*
X172433628Y-173901043D01*
X171902907Y-174430839D01*
X171764151Y-174765000D01*
X171006800Y-174765000D01*
X170772194Y-174811667D01*
X170725527Y-174820949D01*
X170487076Y-174980277D01*
X167157754Y-178309600D01*
X155849047Y-178309600D01*
X153747174Y-176207727D01*
X153884672Y-175876595D01*
X153885326Y-175126695D01*
X153598957Y-174433628D01*
X153069161Y-173902907D01*
X152735000Y-173764151D01*
X152735000Y-170554246D01*
X154812647Y-168476600D01*
X159921953Y-168476600D01*
X156480277Y-171918277D01*
X156320949Y-172156728D01*
X156265000Y-172438000D01*
X156265000Y-173764123D01*
X155933628Y-173901043D01*
X155402907Y-174430839D01*
X155115328Y-175123405D01*
X155114674Y-175873305D01*
X155401043Y-176566372D01*
X155930839Y-177097093D01*
X156623405Y-177384672D01*
X157373305Y-177385326D01*
X158066372Y-177098957D01*
X158332472Y-176833320D01*
X160846285Y-176833320D01*
X160975533Y-177126123D01*
X161675806Y-177394388D01*
X162425435Y-177374250D01*
X163024467Y-177126123D01*
X163153715Y-176833320D01*
X162000000Y-175679605D01*
X160846285Y-176833320D01*
X158332472Y-176833320D01*
X158597093Y-176569161D01*
X158884672Y-175876595D01*
X158885283Y-175175806D01*
X160105612Y-175175806D01*
X160125750Y-175925435D01*
X160373877Y-176524467D01*
X160666680Y-176653715D01*
X161820395Y-175500000D01*
X162179605Y-175500000D01*
X163333320Y-176653715D01*
X163626123Y-176524467D01*
X163894388Y-175824194D01*
X163874250Y-175074565D01*
X163626123Y-174475533D01*
X163333320Y-174346285D01*
X162179605Y-175500000D01*
X161820395Y-175500000D01*
X160666680Y-174346285D01*
X160373877Y-174475533D01*
X160105612Y-175175806D01*
X158885283Y-175175806D01*
X158885326Y-175126695D01*
X158598957Y-174433628D01*
X158332475Y-174166680D01*
X160846285Y-174166680D01*
X162000000Y-175320395D01*
X163153715Y-174166680D01*
X163024467Y-173873877D01*
X162324194Y-173605612D01*
X161574565Y-173625750D01*
X160975533Y-173873877D01*
X160846285Y-174166680D01*
X158332475Y-174166680D01*
X158069161Y-173902907D01*
X157735000Y-173764151D01*
X157735000Y-172742446D01*
X158949475Y-171527971D01*
X177577621Y-171527971D01*
X177734858Y-171908515D01*
X178025754Y-172199919D01*
X178406023Y-172357820D01*
X178817771Y-172358179D01*
X179198315Y-172200942D01*
X179489719Y-171910046D01*
X179647620Y-171529777D01*
X179647796Y-171327450D01*
X180192747Y-170782500D01*
X191619209Y-170782500D01*
X191647538Y-170933057D01*
X191689679Y-170998546D01*
X191654269Y-171050370D01*
X191603260Y-171302260D01*
X191603260Y-172602740D01*
X191647538Y-172838057D01*
X191786610Y-173054181D01*
X191998810Y-173199171D01*
X192250700Y-173250180D01*
X192265000Y-173250180D01*
X192265000Y-174405243D01*
X192093584Y-174439340D01*
X191640365Y-174742172D01*
X191337533Y-175195391D01*
X191231193Y-175730000D01*
X191337533Y-176264609D01*
X191640365Y-176717828D01*
X191864130Y-176867343D01*
X191664863Y-176904838D01*
X191448739Y-177043910D01*
X191303749Y-177256110D01*
X191252740Y-177508000D01*
X191252740Y-179032000D01*
X191297018Y-179267317D01*
X191436090Y-179483441D01*
X191648290Y-179628431D01*
X191900180Y-179679440D01*
X194099820Y-179679440D01*
X194335137Y-179635162D01*
X194551261Y-179496090D01*
X194696251Y-179283890D01*
X194747260Y-179032000D01*
X194747260Y-177508000D01*
X194702982Y-177272683D01*
X194563910Y-177056559D01*
X194351710Y-176911569D01*
X194135276Y-176867740D01*
X194359635Y-176717828D01*
X194662467Y-176264609D01*
X194768807Y-175730000D01*
X194662467Y-175195391D01*
X194359635Y-174742172D01*
X193906416Y-174439340D01*
X193735000Y-174405243D01*
X193735000Y-173250180D01*
X193749300Y-173250180D01*
X193984617Y-173205902D01*
X194200741Y-173066830D01*
X194345731Y-172854630D01*
X194396740Y-172602740D01*
X194396740Y-171302260D01*
X194352462Y-171066943D01*
X194310321Y-171001454D01*
X194345731Y-170949630D01*
X194396740Y-170697740D01*
X194396740Y-169397260D01*
X194352462Y-169161943D01*
X194213390Y-168945819D01*
X194001190Y-168800829D01*
X193749300Y-168749820D01*
X192250700Y-168749820D01*
X192015383Y-168794098D01*
X191799259Y-168933170D01*
X191654269Y-169145370D01*
X191620424Y-169312500D01*
X179888300Y-169312500D01*
X179653694Y-169359167D01*
X179607027Y-169368449D01*
X179368576Y-169527777D01*
X178608358Y-170287996D01*
X178407829Y-170287821D01*
X178027285Y-170445058D01*
X177735881Y-170735954D01*
X177577980Y-171116223D01*
X177577621Y-171527971D01*
X158949475Y-171527971D01*
X163478843Y-166998604D01*
X163679371Y-166998779D01*
X164059915Y-166841542D01*
X164351319Y-166550646D01*
X164500760Y-166190750D01*
X165571510Y-166190750D01*
X165571510Y-166331029D01*
X165668183Y-166564418D01*
X165846811Y-166743047D01*
X166080200Y-166839720D01*
X166920250Y-166839720D01*
X167079000Y-166680970D01*
X167079000Y-166032000D01*
X167333000Y-166032000D01*
X167333000Y-166680970D01*
X167491750Y-166839720D01*
X168331800Y-166839720D01*
X168565189Y-166743047D01*
X168743817Y-166564418D01*
X168840490Y-166331029D01*
X168840490Y-166190750D01*
X168681740Y-166032000D01*
X167333000Y-166032000D01*
X167079000Y-166032000D01*
X165730260Y-166032000D01*
X165571510Y-166190750D01*
X164500760Y-166190750D01*
X164509220Y-166170377D01*
X164509579Y-165758629D01*
X164352342Y-165378085D01*
X164344271Y-165370000D01*
X165616647Y-165370000D01*
X165571510Y-165478971D01*
X165571510Y-165619250D01*
X165730260Y-165778000D01*
X167079000Y-165778000D01*
X167079000Y-165758000D01*
X167333000Y-165758000D01*
X167333000Y-165778000D01*
X168681740Y-165778000D01*
X168840490Y-165619250D01*
X168840490Y-165478971D01*
X168750539Y-165261810D01*
X168801921Y-165186610D01*
X168852930Y-164934720D01*
X168852930Y-164335280D01*
X168808652Y-164099963D01*
X168744626Y-164000464D01*
X168801921Y-163916610D01*
X168852930Y-163664720D01*
X168852930Y-163065280D01*
X168808652Y-162829963D01*
X168744626Y-162730464D01*
X168801921Y-162646610D01*
X168852930Y-162394720D01*
X168852930Y-161795280D01*
X168808652Y-161559963D01*
X168669580Y-161343839D01*
X168457380Y-161198849D01*
X168205490Y-161147840D01*
X166206510Y-161147840D01*
X165971193Y-161192118D01*
X165755069Y-161331190D01*
X165610079Y-161543390D01*
X165559070Y-161795280D01*
X165559070Y-162394720D01*
X165603341Y-162630000D01*
X163833910Y-162630000D01*
X163681177Y-162566580D01*
X163269429Y-162566221D01*
X162888885Y-162723458D01*
X162597481Y-163014354D01*
X162439580Y-163394623D01*
X162439221Y-163806371D01*
X162596458Y-164186915D01*
X162692764Y-164283389D01*
X159969554Y-167006600D01*
X154508200Y-167006600D01*
X154273594Y-167053267D01*
X154226927Y-167062549D01*
X153988476Y-167221877D01*
X151480277Y-169730077D01*
X151320949Y-169968528D01*
X151265000Y-170249800D01*
X151265000Y-173764123D01*
X150933628Y-173901043D01*
X150402907Y-174430839D01*
X150115328Y-175123405D01*
X150114674Y-175873305D01*
X150401043Y-176566372D01*
X150930839Y-177097093D01*
X151623405Y-177384672D01*
X152373305Y-177385326D01*
X152707708Y-177247154D01*
X155024876Y-179564323D01*
X155263327Y-179723651D01*
X155309994Y-179732933D01*
X155544600Y-179779600D01*
X156241978Y-179779600D01*
X156241621Y-180189371D01*
X156283200Y-180290000D01*
X141970531Y-180290000D01*
X142465799Y-180085359D01*
X143207754Y-179344698D01*
X143609792Y-178376483D01*
X143610707Y-177328116D01*
X143210359Y-176359201D01*
X142469698Y-175617246D01*
X141501483Y-175215208D01*
X140453116Y-175214293D01*
X139484201Y-175614641D01*
X138742246Y-176355302D01*
X138340208Y-177323517D01*
X138339293Y-178371884D01*
X138739641Y-179340799D01*
X139480302Y-180082754D01*
X139979406Y-180290000D01*
X137960000Y-180290000D01*
X137960000Y-173460000D01*
X143500000Y-173460000D01*
X143771705Y-173405954D01*
X144002046Y-173252046D01*
X144155954Y-173021705D01*
X144210000Y-172750000D01*
X144210000Y-163738250D01*
X148615700Y-163738250D01*
X148615700Y-164229049D01*
X148712373Y-164462438D01*
X148891001Y-164641067D01*
X149124390Y-164737740D01*
X149714250Y-164737740D01*
X149873000Y-164578990D01*
X149873000Y-163579500D01*
X150127000Y-163579500D01*
X150127000Y-164578990D01*
X150285750Y-164737740D01*
X150875610Y-164737740D01*
X151108999Y-164641067D01*
X151287627Y-164462438D01*
X151384300Y-164229049D01*
X151384300Y-163738250D01*
X157615700Y-163738250D01*
X157615700Y-164229049D01*
X157712373Y-164462438D01*
X157891001Y-164641067D01*
X158124390Y-164737740D01*
X158714250Y-164737740D01*
X158873000Y-164578990D01*
X158873000Y-163579500D01*
X159127000Y-163579500D01*
X159127000Y-164578990D01*
X159285750Y-164737740D01*
X159875610Y-164737740D01*
X160108999Y-164641067D01*
X160287627Y-164462438D01*
X160384300Y-164229049D01*
X160384300Y-163738250D01*
X160225550Y-163579500D01*
X159127000Y-163579500D01*
X158873000Y-163579500D01*
X157774450Y-163579500D01*
X157615700Y-163738250D01*
X151384300Y-163738250D01*
X151225550Y-163579500D01*
X150127000Y-163579500D01*
X149873000Y-163579500D01*
X148774450Y-163579500D01*
X148615700Y-163738250D01*
X144210000Y-163738250D01*
X144210000Y-156000510D01*
X146353210Y-156000510D01*
X146353210Y-157999490D01*
X146397488Y-158234807D01*
X146536560Y-158450931D01*
X146748760Y-158595921D01*
X147000650Y-158646930D01*
X149265000Y-158646930D01*
X149265000Y-160249820D01*
X149250700Y-160249820D01*
X149015383Y-160294098D01*
X148799259Y-160433170D01*
X148654269Y-160645370D01*
X148603260Y-160897260D01*
X148603260Y-162197740D01*
X148647538Y-162433057D01*
X148689378Y-162498078D01*
X148615700Y-162675951D01*
X148615700Y-163166750D01*
X148774450Y-163325500D01*
X149873000Y-163325500D01*
X149873000Y-163305500D01*
X150127000Y-163305500D01*
X150127000Y-163325500D01*
X151225550Y-163325500D01*
X151384300Y-163166750D01*
X151384300Y-162675951D01*
X151311379Y-162499905D01*
X151345731Y-162449630D01*
X151396740Y-162197740D01*
X151396740Y-160897260D01*
X151352462Y-160661943D01*
X151213390Y-160445819D01*
X151001190Y-160300829D01*
X150749300Y-160249820D01*
X150735000Y-160249820D01*
X150735000Y-158646930D01*
X152499750Y-158646930D01*
X152735067Y-158602652D01*
X152951191Y-158463580D01*
X153096181Y-158251380D01*
X153147190Y-157999490D01*
X153147190Y-157735000D01*
X154175400Y-157735000D01*
X154456672Y-157679051D01*
X154695123Y-157519723D01*
X155559723Y-156655124D01*
X155719051Y-156416672D01*
X155720502Y-156409375D01*
X155775000Y-156135400D01*
X155775000Y-155206659D01*
X155790277Y-155229523D01*
X156078237Y-155517483D01*
X156048809Y-155536420D01*
X155903819Y-155748620D01*
X155852810Y-156000510D01*
X155852810Y-157999490D01*
X155897088Y-158234807D01*
X156036160Y-158450931D01*
X156248360Y-158595921D01*
X156500250Y-158646930D01*
X158265000Y-158646930D01*
X158265000Y-160249820D01*
X158250700Y-160249820D01*
X158015383Y-160294098D01*
X157799259Y-160433170D01*
X157654269Y-160645370D01*
X157603260Y-160897260D01*
X157603260Y-162197740D01*
X157647538Y-162433057D01*
X157689378Y-162498078D01*
X157615700Y-162675951D01*
X157615700Y-163166750D01*
X157774450Y-163325500D01*
X158873000Y-163325500D01*
X158873000Y-163305500D01*
X159127000Y-163305500D01*
X159127000Y-163325500D01*
X160225550Y-163325500D01*
X160384300Y-163166750D01*
X160384300Y-162675951D01*
X160311379Y-162499905D01*
X160345731Y-162449630D01*
X160396740Y-162197740D01*
X160396740Y-160897260D01*
X160352462Y-160661943D01*
X160213390Y-160445819D01*
X160001190Y-160300829D01*
X159749300Y-160249820D01*
X159735000Y-160249820D01*
X159735000Y-158646930D01*
X161999350Y-158646930D01*
X162234667Y-158602652D01*
X162450791Y-158463580D01*
X162595781Y-158251380D01*
X162646790Y-157999490D01*
X162646790Y-156000510D01*
X162602512Y-155765193D01*
X162463440Y-155549069D01*
X162251240Y-155404079D01*
X161999350Y-155353070D01*
X157992717Y-155353070D01*
X157045000Y-154405354D01*
X157045000Y-150605638D01*
X157178101Y-150660770D01*
X157294250Y-150660770D01*
X157364481Y-150590539D01*
X157257980Y-150847023D01*
X157257621Y-151258771D01*
X157414858Y-151639315D01*
X157527588Y-151752242D01*
X157415881Y-151863754D01*
X157257980Y-152244023D01*
X157257621Y-152655771D01*
X157414858Y-153036315D01*
X157705754Y-153327719D01*
X158086023Y-153485620D01*
X158497771Y-153485979D01*
X158878315Y-153328742D01*
X159148728Y-153058800D01*
X166065554Y-153058800D01*
X167214596Y-154207843D01*
X167214421Y-154408371D01*
X167371658Y-154788915D01*
X167662554Y-155080319D01*
X167784174Y-155130820D01*
X166442100Y-155130820D01*
X166206783Y-155175098D01*
X165990659Y-155314170D01*
X165845669Y-155526370D01*
X165794660Y-155778260D01*
X165794660Y-157078740D01*
X165838938Y-157314057D01*
X165881079Y-157379546D01*
X165845669Y-157431370D01*
X165794660Y-157683260D01*
X165794660Y-158983740D01*
X165838938Y-159219057D01*
X165978010Y-159435181D01*
X166190210Y-159580171D01*
X166442100Y-159631180D01*
X167075334Y-159631180D01*
X170058876Y-162614723D01*
X170153929Y-162678235D01*
X170297328Y-162774051D01*
X170578600Y-162830000D01*
X171194715Y-162830000D01*
X171147070Y-163065280D01*
X171147070Y-163664720D01*
X171191348Y-163900037D01*
X171249830Y-163990920D01*
X171159510Y-164208971D01*
X171159510Y-164349250D01*
X171318258Y-164507998D01*
X171170652Y-164507998D01*
X171021777Y-164446180D01*
X170610029Y-164445821D01*
X170229485Y-164603058D01*
X169938081Y-164893954D01*
X169780180Y-165274223D01*
X169779821Y-165685971D01*
X169937058Y-166066515D01*
X170227954Y-166357919D01*
X170608223Y-166515820D01*
X170855936Y-166516036D01*
X170907734Y-166550646D01*
X170957728Y-166584051D01*
X171239000Y-166640000D01*
X171320021Y-166640000D01*
X171330420Y-166656161D01*
X171542620Y-166801151D01*
X171794510Y-166852160D01*
X173793490Y-166852160D01*
X174028807Y-166807882D01*
X174244931Y-166668810D01*
X174389921Y-166456610D01*
X174440930Y-166204720D01*
X174440930Y-165605280D01*
X174396652Y-165369963D01*
X174338170Y-165279080D01*
X174428490Y-165061029D01*
X174428490Y-164920750D01*
X174269740Y-164762000D01*
X172921000Y-164762000D01*
X172921000Y-164782000D01*
X172667000Y-164782000D01*
X172667000Y-164762000D01*
X172647000Y-164762000D01*
X172647000Y-164508000D01*
X172667000Y-164508000D01*
X172667000Y-164488000D01*
X172921000Y-164488000D01*
X172921000Y-164508000D01*
X174269740Y-164508000D01*
X174428490Y-164349250D01*
X174428490Y-164250000D01*
X174735049Y-164250000D01*
X174768635Y-164283645D01*
X175185644Y-164456803D01*
X175637175Y-164457197D01*
X176054486Y-164284767D01*
X176374045Y-163965765D01*
X176547203Y-163548756D01*
X176547597Y-163097225D01*
X176375167Y-162679914D01*
X176056165Y-162360355D01*
X175639156Y-162187197D01*
X175187625Y-162186803D01*
X174770314Y-162359233D01*
X174649336Y-162480000D01*
X174423660Y-162480000D01*
X174440930Y-162394720D01*
X174440930Y-161795280D01*
X174396652Y-161559963D01*
X174257580Y-161343839D01*
X174045380Y-161198849D01*
X173793490Y-161147840D01*
X171794510Y-161147840D01*
X171559193Y-161192118D01*
X171343069Y-161331190D01*
X171323384Y-161360000D01*
X170883047Y-161360000D01*
X168574440Y-159051394D01*
X168588140Y-158983740D01*
X168588140Y-158619250D01*
X168807100Y-158619250D01*
X168807100Y-159110049D01*
X168903773Y-159343438D01*
X169082401Y-159522067D01*
X169315790Y-159618740D01*
X169905650Y-159618740D01*
X170064400Y-159459990D01*
X170064400Y-158460500D01*
X170318400Y-158460500D01*
X170318400Y-159459990D01*
X170477150Y-159618740D01*
X171067010Y-159618740D01*
X171300399Y-159522067D01*
X171479027Y-159343438D01*
X171575700Y-159110049D01*
X171575700Y-158619250D01*
X171807100Y-158619250D01*
X171807100Y-159110049D01*
X171903773Y-159343438D01*
X172082401Y-159522067D01*
X172315790Y-159618740D01*
X172905650Y-159618740D01*
X173064400Y-159459990D01*
X173064400Y-158460500D01*
X173318400Y-158460500D01*
X173318400Y-159459990D01*
X173477150Y-159618740D01*
X174067010Y-159618740D01*
X174300399Y-159522067D01*
X174479027Y-159343438D01*
X174575700Y-159110049D01*
X174575700Y-158619250D01*
X174416950Y-158460500D01*
X173318400Y-158460500D01*
X173064400Y-158460500D01*
X171965850Y-158460500D01*
X171807100Y-158619250D01*
X171575700Y-158619250D01*
X171416950Y-158460500D01*
X170318400Y-158460500D01*
X170064400Y-158460500D01*
X168965850Y-158460500D01*
X168807100Y-158619250D01*
X168588140Y-158619250D01*
X168588140Y-157683260D01*
X168543862Y-157447943D01*
X168501721Y-157382454D01*
X168537131Y-157330630D01*
X168570976Y-157163500D01*
X168810609Y-157163500D01*
X168838938Y-157314057D01*
X168880778Y-157379078D01*
X168807100Y-157556951D01*
X168807100Y-158047750D01*
X168965850Y-158206500D01*
X170064400Y-158206500D01*
X170064400Y-158186500D01*
X170318400Y-158186500D01*
X170318400Y-158206500D01*
X171416950Y-158206500D01*
X171575700Y-158047750D01*
X171575700Y-157556951D01*
X171502779Y-157380905D01*
X171537131Y-157330630D01*
X171588140Y-157078740D01*
X171588140Y-155778260D01*
X171794660Y-155778260D01*
X171794660Y-157078740D01*
X171838938Y-157314057D01*
X171880778Y-157379078D01*
X171807100Y-157556951D01*
X171807100Y-158047750D01*
X171965850Y-158206500D01*
X173064400Y-158206500D01*
X173064400Y-158186500D01*
X173318400Y-158186500D01*
X173318400Y-158206500D01*
X174416950Y-158206500D01*
X174575700Y-158047750D01*
X174575700Y-157556951D01*
X174502779Y-157380905D01*
X174537131Y-157330630D01*
X174540600Y-157313500D01*
X175219295Y-157313500D01*
X175219300Y-157313501D01*
X175221281Y-157313107D01*
X175236444Y-157319403D01*
X175687975Y-157319797D01*
X176105286Y-157147367D01*
X176424845Y-156828365D01*
X176598003Y-156411356D01*
X176598397Y-155959825D01*
X176425967Y-155542514D01*
X176106965Y-155222955D01*
X175689956Y-155049797D01*
X175238425Y-155049403D01*
X174821114Y-155221833D01*
X174526489Y-155515945D01*
X174404790Y-155326819D01*
X174192590Y-155181829D01*
X173940700Y-155130820D01*
X172442100Y-155130820D01*
X172206783Y-155175098D01*
X171990659Y-155314170D01*
X171845669Y-155526370D01*
X171794660Y-155778260D01*
X171588140Y-155778260D01*
X171543862Y-155542943D01*
X171404790Y-155326819D01*
X171192590Y-155181829D01*
X170940700Y-155130820D01*
X170926400Y-155130820D01*
X170926400Y-154595800D01*
X170870451Y-154314528D01*
X170870451Y-154314527D01*
X170711123Y-154076076D01*
X167169123Y-150534077D01*
X166930672Y-150374749D01*
X166649400Y-150318800D01*
X159021518Y-150318800D01*
X158879846Y-150176881D01*
X158499577Y-150018980D01*
X158490590Y-150018972D01*
X158490590Y-149596510D01*
X158331840Y-149437760D01*
X157707000Y-149437760D01*
X157707000Y-149457760D01*
X157453000Y-149457760D01*
X157453000Y-149437760D01*
X157433000Y-149437760D01*
X157433000Y-149183760D01*
X157453000Y-149183760D01*
X157453000Y-148119500D01*
X157707000Y-148119500D01*
X157707000Y-149183760D01*
X158331840Y-149183760D01*
X158490590Y-149025010D01*
X158490590Y-148469440D01*
X158393917Y-148236051D01*
X158215288Y-148057423D01*
X157981899Y-147960750D01*
X157865750Y-147960750D01*
X157707000Y-148119500D01*
X157453000Y-148119500D01*
X157294250Y-147960750D01*
X157178101Y-147960750D01*
X156944712Y-148057423D01*
X156935703Y-148066432D01*
X156837480Y-147999319D01*
X156585590Y-147948310D01*
X156034410Y-147948310D01*
X155799093Y-147992588D01*
X155674740Y-148072607D01*
X155567480Y-147999319D01*
X155315590Y-147948310D01*
X154764410Y-147948310D01*
X154529093Y-147992588D01*
X154404740Y-148072607D01*
X154297480Y-147999319D01*
X154045590Y-147948310D01*
X153494410Y-147948310D01*
X153259093Y-147992588D01*
X153134740Y-148072607D01*
X153027480Y-147999319D01*
X152775590Y-147948310D01*
X152224410Y-147948310D01*
X151989093Y-147992588D01*
X151864740Y-148072607D01*
X151757480Y-147999319D01*
X151505590Y-147948310D01*
X150954410Y-147948310D01*
X150719093Y-147992588D01*
X150594740Y-148072607D01*
X150487480Y-147999319D01*
X150235590Y-147948310D01*
X149684410Y-147948310D01*
X149449093Y-147992588D01*
X149324740Y-148072607D01*
X149217480Y-147999319D01*
X148965590Y-147948310D01*
X148414410Y-147948310D01*
X148179093Y-147992588D01*
X148054740Y-148072607D01*
X147947480Y-147999319D01*
X147695590Y-147948310D01*
X147144410Y-147948310D01*
X146909093Y-147992588D01*
X146692969Y-148131660D01*
X146547979Y-148343860D01*
X146496970Y-148595750D01*
X146496970Y-150025770D01*
X146541248Y-150261087D01*
X146680320Y-150477211D01*
X146685000Y-150480409D01*
X146685000Y-150874400D01*
X146740949Y-151155672D01*
X146900277Y-151394123D01*
X148298876Y-152792723D01*
X148513056Y-152935833D01*
X148537328Y-152952051D01*
X148818600Y-153008000D01*
X153042882Y-153008000D01*
X153184554Y-153149919D01*
X153564823Y-153307820D01*
X153976571Y-153308179D01*
X154305000Y-153172475D01*
X154305000Y-155830953D01*
X153870954Y-156265000D01*
X153147190Y-156265000D01*
X153147190Y-156000510D01*
X153102912Y-155765193D01*
X152963840Y-155549069D01*
X152751640Y-155404079D01*
X152499750Y-155353070D01*
X147000650Y-155353070D01*
X146765333Y-155397348D01*
X146549209Y-155536420D01*
X146404219Y-155748620D01*
X146353210Y-156000510D01*
X144210000Y-156000510D01*
X144210000Y-152395780D01*
X145829297Y-154015077D01*
X145829203Y-154123375D01*
X146001633Y-154540686D01*
X146320635Y-154860245D01*
X146737644Y-155033403D01*
X147189175Y-155033797D01*
X147606486Y-154861367D01*
X147926045Y-154542365D01*
X148099203Y-154125356D01*
X148099597Y-153673825D01*
X147927167Y-153256514D01*
X147608165Y-152936955D01*
X147191156Y-152763797D01*
X147081080Y-152763701D01*
X145131600Y-150814220D01*
X145131600Y-145738250D01*
X160115700Y-145738250D01*
X160115700Y-146229049D01*
X160212373Y-146462438D01*
X160391001Y-146641067D01*
X160624390Y-146737740D01*
X161214250Y-146737740D01*
X161373000Y-146578990D01*
X161373000Y-145579500D01*
X161627000Y-145579500D01*
X161627000Y-146578990D01*
X161785750Y-146737740D01*
X162375610Y-146737740D01*
X162608999Y-146641067D01*
X162787627Y-146462438D01*
X162884300Y-146229049D01*
X162884300Y-145738250D01*
X162725550Y-145579500D01*
X161627000Y-145579500D01*
X161373000Y-145579500D01*
X160274450Y-145579500D01*
X160115700Y-145738250D01*
X145131600Y-145738250D01*
X145131600Y-135791380D01*
X145749820Y-136409600D01*
X145749820Y-137249300D01*
X145794098Y-137484617D01*
X145933170Y-137700741D01*
X146145370Y-137845731D01*
X146162500Y-137849200D01*
X146162500Y-138335295D01*
X146162499Y-138335300D01*
X146204610Y-138547000D01*
X146229867Y-138673975D01*
X146361920Y-138871607D01*
X146421710Y-138961090D01*
X146496970Y-139036350D01*
X146496970Y-140404250D01*
X146535000Y-140606362D01*
X146535000Y-142085995D01*
X146534999Y-142086000D01*
X146576393Y-142294098D01*
X146602367Y-142424675D01*
X146761275Y-142662499D01*
X146794210Y-142711790D01*
X148255708Y-144173287D01*
X148255710Y-144173290D01*
X148468090Y-144315197D01*
X148542825Y-144365133D01*
X148881500Y-144432501D01*
X148881505Y-144432500D01*
X160147433Y-144432500D01*
X160147538Y-144433057D01*
X160189378Y-144498078D01*
X160115700Y-144675951D01*
X160115700Y-145166750D01*
X160274450Y-145325500D01*
X161373000Y-145325500D01*
X161373000Y-145305500D01*
X161627000Y-145305500D01*
X161627000Y-145325500D01*
X162725550Y-145325500D01*
X162787235Y-145263815D01*
X165349208Y-147825787D01*
X165349210Y-147825790D01*
X165636325Y-148017633D01*
X165669958Y-148024323D01*
X165975000Y-148085001D01*
X165975005Y-148085000D01*
X172404593Y-148085000D01*
X172406235Y-148086645D01*
X172823244Y-148259803D01*
X173274775Y-148260197D01*
X173692086Y-148087767D01*
X174011645Y-147768765D01*
X174184803Y-147351756D01*
X174185197Y-146900225D01*
X174012767Y-146482914D01*
X173693765Y-146163355D01*
X173276756Y-145990197D01*
X172825225Y-145989803D01*
X172407914Y-146162233D01*
X172254880Y-146315000D01*
X166341579Y-146315000D01*
X162948290Y-142921710D01*
X162911698Y-142897260D01*
X162894589Y-142885828D01*
X162852462Y-142661943D01*
X162713390Y-142445819D01*
X162501190Y-142300829D01*
X162318335Y-142263800D01*
X162618682Y-142263800D01*
X162760354Y-142405719D01*
X163140623Y-142563620D01*
X163552371Y-142563979D01*
X163932915Y-142406742D01*
X164224319Y-142115846D01*
X164382220Y-141735577D01*
X164382579Y-141323829D01*
X164225342Y-140943285D01*
X163934446Y-140651881D01*
X163554177Y-140493980D01*
X163142429Y-140493621D01*
X162761885Y-140650858D01*
X162618693Y-140793800D01*
X158357962Y-140793800D01*
X158452021Y-140656140D01*
X158503030Y-140404250D01*
X158503030Y-138974230D01*
X158458752Y-138738913D01*
X158455076Y-138733200D01*
X173241076Y-138733200D01*
X173351423Y-138779020D01*
X173763171Y-138779379D01*
X174143715Y-138622142D01*
X174271000Y-138495079D01*
X174271000Y-147504600D01*
X174319971Y-147750790D01*
X174326949Y-147785872D01*
X174486277Y-148024323D01*
X184456070Y-157994117D01*
X184456070Y-159848740D01*
X184500348Y-160084057D01*
X184639420Y-160300181D01*
X184851620Y-160445171D01*
X185103510Y-160496180D01*
X186899290Y-160496180D01*
X187134607Y-160451902D01*
X187350731Y-160312830D01*
X187495721Y-160100630D01*
X187498711Y-160085864D01*
X187636620Y-160300181D01*
X187848820Y-160445171D01*
X188100710Y-160496180D01*
X189896490Y-160496180D01*
X190131807Y-160451902D01*
X190347931Y-160312830D01*
X190492921Y-160100630D01*
X190543930Y-159848740D01*
X190543930Y-159776420D01*
X190645370Y-159845731D01*
X190897260Y-159896740D01*
X192197740Y-159896740D01*
X192433057Y-159852462D01*
X192498078Y-159810622D01*
X192675951Y-159884300D01*
X193166750Y-159884300D01*
X193325500Y-159725550D01*
X193325500Y-158627000D01*
X193579500Y-158627000D01*
X193579500Y-159725550D01*
X193738250Y-159884300D01*
X194229049Y-159884300D01*
X194462438Y-159787627D01*
X194641067Y-159608999D01*
X194737740Y-159375610D01*
X194737740Y-158785750D01*
X194578990Y-158627000D01*
X193579500Y-158627000D01*
X193325500Y-158627000D01*
X193305500Y-158627000D01*
X193305500Y-158373000D01*
X193325500Y-158373000D01*
X193325500Y-157274450D01*
X193579500Y-157274450D01*
X193579500Y-158373000D01*
X194578990Y-158373000D01*
X194737740Y-158214250D01*
X194737740Y-157624390D01*
X194641067Y-157391001D01*
X194462438Y-157212373D01*
X194229049Y-157115700D01*
X193738250Y-157115700D01*
X193579500Y-157274450D01*
X193325500Y-157274450D01*
X193166750Y-157115700D01*
X192675951Y-157115700D01*
X192499905Y-157188621D01*
X192449630Y-157154269D01*
X192197740Y-157103260D01*
X190897260Y-157103260D01*
X190661943Y-157147538D01*
X190543930Y-157223477D01*
X190543930Y-157151260D01*
X190499652Y-156915943D01*
X190360580Y-156699819D01*
X190148380Y-156554829D01*
X189896490Y-156503820D01*
X188100710Y-156503820D01*
X187865393Y-156548098D01*
X187649269Y-156687170D01*
X187504279Y-156899370D01*
X187501289Y-156914136D01*
X187363380Y-156699819D01*
X187151180Y-156554829D01*
X186899290Y-156503820D01*
X185103510Y-156503820D01*
X185053986Y-156513139D01*
X181376396Y-152835550D01*
X181625000Y-152885001D01*
X181625005Y-152885000D01*
X184456070Y-152885000D01*
X184456070Y-153348740D01*
X184500348Y-153584057D01*
X184639420Y-153800181D01*
X184851620Y-153945171D01*
X185103510Y-153996180D01*
X186899290Y-153996180D01*
X187134607Y-153951902D01*
X187350731Y-153812830D01*
X187495721Y-153600630D01*
X187498711Y-153585864D01*
X187636620Y-153800181D01*
X187848820Y-153945171D01*
X188100710Y-153996180D01*
X189896490Y-153996180D01*
X190131807Y-153951902D01*
X190347931Y-153812830D01*
X190492921Y-153600630D01*
X190543930Y-153348740D01*
X190543930Y-153276420D01*
X190645370Y-153345731D01*
X190897260Y-153396740D01*
X192197740Y-153396740D01*
X192433057Y-153352462D01*
X192498078Y-153310622D01*
X192675951Y-153384300D01*
X193166750Y-153384300D01*
X193325500Y-153225550D01*
X193325500Y-152127000D01*
X193579500Y-152127000D01*
X193579500Y-153225550D01*
X193738250Y-153384300D01*
X194229049Y-153384300D01*
X194462438Y-153287627D01*
X194641067Y-153108999D01*
X194737740Y-152875610D01*
X194737740Y-152285750D01*
X194578990Y-152127000D01*
X193579500Y-152127000D01*
X193325500Y-152127000D01*
X193305500Y-152127000D01*
X193305500Y-151873000D01*
X193325500Y-151873000D01*
X193325500Y-150774450D01*
X193579500Y-150774450D01*
X193579500Y-151873000D01*
X194578990Y-151873000D01*
X194737740Y-151714250D01*
X194737740Y-151124390D01*
X194641067Y-150891001D01*
X194462438Y-150712373D01*
X194229049Y-150615700D01*
X193738250Y-150615700D01*
X193579500Y-150774450D01*
X193325500Y-150774450D01*
X193166750Y-150615700D01*
X192675951Y-150615700D01*
X192499905Y-150688621D01*
X192449630Y-150654269D01*
X192197740Y-150603260D01*
X190897260Y-150603260D01*
X190661943Y-150647538D01*
X190543930Y-150723477D01*
X190543930Y-150651260D01*
X190499652Y-150415943D01*
X190360580Y-150199819D01*
X190148380Y-150054829D01*
X189896490Y-150003820D01*
X188100710Y-150003820D01*
X187865393Y-150048098D01*
X187649269Y-150187170D01*
X187504279Y-150399370D01*
X187501289Y-150414136D01*
X187363380Y-150199819D01*
X187151180Y-150054829D01*
X186899290Y-150003820D01*
X185103510Y-150003820D01*
X184868193Y-150048098D01*
X184652069Y-150187170D01*
X184507079Y-150399370D01*
X184456070Y-150651260D01*
X184456070Y-151115000D01*
X181991579Y-151115000D01*
X177885103Y-147008523D01*
X177885197Y-146900225D01*
X177712767Y-146482914D01*
X177393765Y-146163355D01*
X176976756Y-145990197D01*
X176525225Y-145989803D01*
X176107914Y-146162233D01*
X175788355Y-146481235D01*
X175741000Y-146595278D01*
X175741000Y-145674775D01*
X177289803Y-145674775D01*
X177462233Y-146092086D01*
X177781235Y-146411645D01*
X178198244Y-146584803D01*
X178649775Y-146585197D01*
X179067086Y-146412767D01*
X179094901Y-146385000D01*
X184456070Y-146385000D01*
X184456070Y-146848740D01*
X184500348Y-147084057D01*
X184639420Y-147300181D01*
X184851620Y-147445171D01*
X185103510Y-147496180D01*
X186899290Y-147496180D01*
X187134607Y-147451902D01*
X187350731Y-147312830D01*
X187495721Y-147100630D01*
X187498711Y-147085864D01*
X187636620Y-147300181D01*
X187848820Y-147445171D01*
X188100710Y-147496180D01*
X189896490Y-147496180D01*
X190131807Y-147451902D01*
X190347931Y-147312830D01*
X190492921Y-147100630D01*
X190543930Y-146848740D01*
X190543930Y-146776420D01*
X190645370Y-146845731D01*
X190897260Y-146896740D01*
X192197740Y-146896740D01*
X192433057Y-146852462D01*
X192498078Y-146810622D01*
X192675951Y-146884300D01*
X193166750Y-146884300D01*
X193325500Y-146725550D01*
X193325500Y-145627000D01*
X193579500Y-145627000D01*
X193579500Y-146725550D01*
X193738250Y-146884300D01*
X194229049Y-146884300D01*
X194462438Y-146787627D01*
X194641067Y-146608999D01*
X194737740Y-146375610D01*
X194737740Y-145785750D01*
X194578990Y-145627000D01*
X193579500Y-145627000D01*
X193325500Y-145627000D01*
X193305500Y-145627000D01*
X193305500Y-145373000D01*
X193325500Y-145373000D01*
X193325500Y-144274450D01*
X193579500Y-144274450D01*
X193579500Y-145373000D01*
X194578990Y-145373000D01*
X194737740Y-145214250D01*
X194737740Y-144624390D01*
X194641067Y-144391001D01*
X194462438Y-144212373D01*
X194229049Y-144115700D01*
X193738250Y-144115700D01*
X193579500Y-144274450D01*
X193325500Y-144274450D01*
X193166750Y-144115700D01*
X192675951Y-144115700D01*
X192499905Y-144188621D01*
X192449630Y-144154269D01*
X192197740Y-144103260D01*
X190897260Y-144103260D01*
X190661943Y-144147538D01*
X190543930Y-144223477D01*
X190543930Y-144151260D01*
X190499652Y-143915943D01*
X190360580Y-143699819D01*
X190148380Y-143554829D01*
X189896490Y-143503820D01*
X188100710Y-143503820D01*
X187865393Y-143548098D01*
X187649269Y-143687170D01*
X187504279Y-143899370D01*
X187501289Y-143914136D01*
X187363380Y-143699819D01*
X187151180Y-143554829D01*
X186899290Y-143503820D01*
X185103510Y-143503820D01*
X184868193Y-143548098D01*
X184652069Y-143687170D01*
X184507079Y-143899370D01*
X184456070Y-144151260D01*
X184456070Y-144615000D01*
X179195189Y-144615000D01*
X179068765Y-144488355D01*
X178651756Y-144315197D01*
X178200225Y-144314803D01*
X177782914Y-144487233D01*
X177463355Y-144806235D01*
X177290197Y-145223244D01*
X177289803Y-145674775D01*
X175741000Y-145674775D01*
X175741000Y-136321800D01*
X175685051Y-136040528D01*
X175610582Y-135929077D01*
X175525723Y-135802076D01*
X174357323Y-134633677D01*
X174118872Y-134474349D01*
X173837600Y-134418400D01*
X157505047Y-134418400D01*
X154442955Y-131356309D01*
X154645360Y-131053388D01*
X154855690Y-131368169D01*
X155341871Y-131693025D01*
X155915360Y-131807099D01*
X156488849Y-131693025D01*
X156975030Y-131368169D01*
X157185360Y-131053388D01*
X157395690Y-131368169D01*
X157881871Y-131693025D01*
X158455360Y-131807099D01*
X159028849Y-131693025D01*
X159515030Y-131368169D01*
X159725360Y-131053388D01*
X159935690Y-131368169D01*
X160421871Y-131693025D01*
X160995360Y-131807099D01*
X161568849Y-131693025D01*
X162055030Y-131368169D01*
X162265360Y-131053388D01*
X162475690Y-131368169D01*
X162961871Y-131693025D01*
X163535360Y-131807099D01*
X164108849Y-131693025D01*
X164595030Y-131368169D01*
X164805360Y-131053388D01*
X165015690Y-131368169D01*
X165501871Y-131693025D01*
X166075360Y-131807099D01*
X166648849Y-131693025D01*
X167135030Y-131368169D01*
X167345360Y-131053388D01*
X167555690Y-131368169D01*
X168041871Y-131693025D01*
X168615360Y-131807099D01*
X169188849Y-131693025D01*
X169675030Y-131368169D01*
X169885360Y-131053388D01*
X170095690Y-131368169D01*
X170581871Y-131693025D01*
X171155360Y-131807099D01*
X171728849Y-131693025D01*
X172215030Y-131368169D01*
X172425360Y-131053388D01*
X172635690Y-131368169D01*
X173121871Y-131693025D01*
X173695360Y-131807099D01*
X174268849Y-131693025D01*
X174755030Y-131368169D01*
X174965360Y-131053388D01*
X175175690Y-131368169D01*
X175661871Y-131693025D01*
X176235360Y-131807099D01*
X176808849Y-131693025D01*
X177295030Y-131368169D01*
X177619886Y-130881988D01*
X177733960Y-130308499D01*
X177733960Y-130249781D01*
X177619886Y-129676292D01*
X177295030Y-129190111D01*
X177024188Y-129009140D01*
X177295030Y-128828169D01*
X177619886Y-128341988D01*
X177733960Y-127768499D01*
X177733960Y-127709781D01*
X177619886Y-127136292D01*
X177295030Y-126650111D01*
X176808849Y-126325255D01*
X176235360Y-126211181D01*
X175661871Y-126325255D01*
X175175690Y-126650111D01*
X174965360Y-126964892D01*
X174755030Y-126650111D01*
X174268849Y-126325255D01*
X173695360Y-126211181D01*
X173121871Y-126325255D01*
X172635690Y-126650111D01*
X172425360Y-126964892D01*
X172215030Y-126650111D01*
X171728849Y-126325255D01*
X171155360Y-126211181D01*
X170581871Y-126325255D01*
X170095690Y-126650111D01*
X169885360Y-126964892D01*
X169675030Y-126650111D01*
X169188849Y-126325255D01*
X168615360Y-126211181D01*
X168041871Y-126325255D01*
X167555690Y-126650111D01*
X167345360Y-126964892D01*
X167135030Y-126650111D01*
X166648849Y-126325255D01*
X166075360Y-126211181D01*
X165501871Y-126325255D01*
X165015690Y-126650111D01*
X164805360Y-126964892D01*
X164595030Y-126650111D01*
X164108849Y-126325255D01*
X163535360Y-126211181D01*
X162961871Y-126325255D01*
X162475690Y-126650111D01*
X162265360Y-126964892D01*
X162055030Y-126650111D01*
X161568849Y-126325255D01*
X160995360Y-126211181D01*
X160421871Y-126325255D01*
X159935690Y-126650111D01*
X159725360Y-126964892D01*
X159515030Y-126650111D01*
X159028849Y-126325255D01*
X158455360Y-126211181D01*
X157881871Y-126325255D01*
X157395690Y-126650111D01*
X157185360Y-126964892D01*
X156975030Y-126650111D01*
X156488849Y-126325255D01*
X155915360Y-126211181D01*
X155341871Y-126325255D01*
X154855690Y-126650111D01*
X154645360Y-126964892D01*
X154435030Y-126650111D01*
X153948849Y-126325255D01*
X153375360Y-126211181D01*
X152801871Y-126325255D01*
X152315690Y-126650111D01*
X152099696Y-126973368D01*
X152042181Y-126850650D01*
X151610307Y-126456452D01*
X151194386Y-126284182D01*
X150962360Y-126405323D01*
X150962360Y-127612140D01*
X150982360Y-127612140D01*
X150982360Y-127866140D01*
X150962360Y-127866140D01*
X150962360Y-127886140D01*
X150708360Y-127886140D01*
X150708360Y-127866140D01*
X150688360Y-127866140D01*
X150688360Y-127612140D01*
X150708360Y-127612140D01*
X150708360Y-126405323D01*
X150476334Y-126284182D01*
X150060413Y-126456452D01*
X149628539Y-126850650D01*
X149571024Y-126973368D01*
X149355030Y-126650111D01*
X148868849Y-126325255D01*
X148295360Y-126211181D01*
X147721871Y-126325255D01*
X147235690Y-126650111D01*
X147025360Y-126964892D01*
X146815030Y-126650111D01*
X146328849Y-126325255D01*
X145755360Y-126211181D01*
X145181871Y-126325255D01*
X144695690Y-126650111D01*
X144537612Y-126886692D01*
X144362585Y-126921507D01*
X144075470Y-127113350D01*
X144075468Y-127113353D01*
X143620810Y-127568010D01*
X143445868Y-127829831D01*
X143210147Y-127259342D01*
X142469557Y-126517458D01*
X141501433Y-126115458D01*
X140453166Y-126114543D01*
X139484342Y-126514853D01*
X138742458Y-127255443D01*
X138340458Y-128223567D01*
X138339543Y-129271834D01*
X138739853Y-130240658D01*
X139480443Y-130982542D01*
X140448567Y-131384542D01*
X141496834Y-131385457D01*
X142465658Y-130985147D01*
X143207542Y-130244557D01*
X143361600Y-129873544D01*
X143361600Y-132540000D01*
X137960000Y-132540000D01*
X137960000Y-125710000D01*
X178540000Y-125710000D01*
X178540000Y-140500000D01*
X178540000Y-140500000D01*
G37*
X178540000Y-140500000D02*
X178594046Y-140771705D01*
X178747954Y-141002046D01*
X178978295Y-141155954D01*
X179250000Y-141210000D01*
X195790000Y-141210000D01*
X195790000Y-180290000D01*
X174012646Y-180290000D01*
X177318295Y-176984352D01*
X177430839Y-177097093D01*
X178123405Y-177384672D01*
X178873305Y-177385326D01*
X179566372Y-177098957D01*
X179832472Y-176833320D01*
X182346285Y-176833320D01*
X182475533Y-177126123D01*
X183175806Y-177394388D01*
X183925435Y-177374250D01*
X184524467Y-177126123D01*
X184653715Y-176833320D01*
X183500000Y-175679605D01*
X182346285Y-176833320D01*
X179832472Y-176833320D01*
X180097093Y-176569161D01*
X180384672Y-175876595D01*
X180385283Y-175175806D01*
X181605612Y-175175806D01*
X181625750Y-175925435D01*
X181873877Y-176524467D01*
X182166680Y-176653715D01*
X183320395Y-175500000D01*
X183679605Y-175500000D01*
X184833320Y-176653715D01*
X185126123Y-176524467D01*
X185394388Y-175824194D01*
X185374250Y-175074565D01*
X185126123Y-174475533D01*
X184833320Y-174346285D01*
X183679605Y-175500000D01*
X183320395Y-175500000D01*
X182166680Y-174346285D01*
X181873877Y-174475533D01*
X181605612Y-175175806D01*
X180385283Y-175175806D01*
X180385326Y-175126695D01*
X180098957Y-174433628D01*
X179832475Y-174166680D01*
X182346285Y-174166680D01*
X183500000Y-175320395D01*
X184653715Y-174166680D01*
X184524467Y-173873877D01*
X183824194Y-173605612D01*
X183074565Y-173625750D01*
X182475533Y-173873877D01*
X182346285Y-174166680D01*
X179832475Y-174166680D01*
X179569161Y-173902907D01*
X178876595Y-173615328D01*
X178126695Y-173614674D01*
X177433628Y-173901043D01*
X176902907Y-174430839D01*
X176615328Y-175123405D01*
X176614905Y-175608849D01*
X172974354Y-179249400D01*
X168296846Y-179249400D01*
X171311247Y-176235000D01*
X171764123Y-176235000D01*
X171901043Y-176566372D01*
X172430839Y-177097093D01*
X173123405Y-177384672D01*
X173873305Y-177385326D01*
X174566372Y-177098957D01*
X175097093Y-176569161D01*
X175384672Y-175876595D01*
X175385326Y-175126695D01*
X175098957Y-174433628D01*
X174569161Y-173902907D01*
X173876595Y-173615328D01*
X173126695Y-173614674D01*
X172433628Y-173901043D01*
X171902907Y-174430839D01*
X171764151Y-174765000D01*
X171006800Y-174765000D01*
X170772194Y-174811667D01*
X170725527Y-174820949D01*
X170487076Y-174980277D01*
X167157754Y-178309600D01*
X155849047Y-178309600D01*
X153747174Y-176207727D01*
X153884672Y-175876595D01*
X153885326Y-175126695D01*
X153598957Y-174433628D01*
X153069161Y-173902907D01*
X152735000Y-173764151D01*
X152735000Y-170554246D01*
X154812647Y-168476600D01*
X159921953Y-168476600D01*
X156480277Y-171918277D01*
X156320949Y-172156728D01*
X156265000Y-172438000D01*
X156265000Y-173764123D01*
X155933628Y-173901043D01*
X155402907Y-174430839D01*
X155115328Y-175123405D01*
X155114674Y-175873305D01*
X155401043Y-176566372D01*
X155930839Y-177097093D01*
X156623405Y-177384672D01*
X157373305Y-177385326D01*
X158066372Y-177098957D01*
X158332472Y-176833320D01*
X160846285Y-176833320D01*
X160975533Y-177126123D01*
X161675806Y-177394388D01*
X162425435Y-177374250D01*
X163024467Y-177126123D01*
X163153715Y-176833320D01*
X162000000Y-175679605D01*
X160846285Y-176833320D01*
X158332472Y-176833320D01*
X158597093Y-176569161D01*
X158884672Y-175876595D01*
X158885283Y-175175806D01*
X160105612Y-175175806D01*
X160125750Y-175925435D01*
X160373877Y-176524467D01*
X160666680Y-176653715D01*
X161820395Y-175500000D01*
X162179605Y-175500000D01*
X163333320Y-176653715D01*
X163626123Y-176524467D01*
X163894388Y-175824194D01*
X163874250Y-175074565D01*
X163626123Y-174475533D01*
X163333320Y-174346285D01*
X162179605Y-175500000D01*
X161820395Y-175500000D01*
X160666680Y-174346285D01*
X160373877Y-174475533D01*
X160105612Y-175175806D01*
X158885283Y-175175806D01*
X158885326Y-175126695D01*
X158598957Y-174433628D01*
X158332475Y-174166680D01*
X160846285Y-174166680D01*
X162000000Y-175320395D01*
X163153715Y-174166680D01*
X163024467Y-173873877D01*
X162324194Y-173605612D01*
X161574565Y-173625750D01*
X160975533Y-173873877D01*
X160846285Y-174166680D01*
X158332475Y-174166680D01*
X158069161Y-173902907D01*
X157735000Y-173764151D01*
X157735000Y-172742446D01*
X158949475Y-171527971D01*
X177577621Y-171527971D01*
X177734858Y-171908515D01*
X178025754Y-172199919D01*
X178406023Y-172357820D01*
X178817771Y-172358179D01*
X179198315Y-172200942D01*
X179489719Y-171910046D01*
X179647620Y-171529777D01*
X179647796Y-171327450D01*
X180192747Y-170782500D01*
X191619209Y-170782500D01*
X191647538Y-170933057D01*
X191689679Y-170998546D01*
X191654269Y-171050370D01*
X191603260Y-171302260D01*
X191603260Y-172602740D01*
X191647538Y-172838057D01*
X191786610Y-173054181D01*
X191998810Y-173199171D01*
X192250700Y-173250180D01*
X192265000Y-173250180D01*
X192265000Y-174405243D01*
X192093584Y-174439340D01*
X191640365Y-174742172D01*
X191337533Y-175195391D01*
X191231193Y-175730000D01*
X191337533Y-176264609D01*
X191640365Y-176717828D01*
X191864130Y-176867343D01*
X191664863Y-176904838D01*
X191448739Y-177043910D01*
X191303749Y-177256110D01*
X191252740Y-177508000D01*
X191252740Y-179032000D01*
X191297018Y-179267317D01*
X191436090Y-179483441D01*
X191648290Y-179628431D01*
X191900180Y-179679440D01*
X194099820Y-179679440D01*
X194335137Y-179635162D01*
X194551261Y-179496090D01*
X194696251Y-179283890D01*
X194747260Y-179032000D01*
X194747260Y-177508000D01*
X194702982Y-177272683D01*
X194563910Y-177056559D01*
X194351710Y-176911569D01*
X194135276Y-176867740D01*
X194359635Y-176717828D01*
X194662467Y-176264609D01*
X194768807Y-175730000D01*
X194662467Y-175195391D01*
X194359635Y-174742172D01*
X193906416Y-174439340D01*
X193735000Y-174405243D01*
X193735000Y-173250180D01*
X193749300Y-173250180D01*
X193984617Y-173205902D01*
X194200741Y-173066830D01*
X194345731Y-172854630D01*
X194396740Y-172602740D01*
X194396740Y-171302260D01*
X194352462Y-171066943D01*
X194310321Y-171001454D01*
X194345731Y-170949630D01*
X194396740Y-170697740D01*
X194396740Y-169397260D01*
X194352462Y-169161943D01*
X194213390Y-168945819D01*
X194001190Y-168800829D01*
X193749300Y-168749820D01*
X192250700Y-168749820D01*
X192015383Y-168794098D01*
X191799259Y-168933170D01*
X191654269Y-169145370D01*
X191620424Y-169312500D01*
X179888300Y-169312500D01*
X179653694Y-169359167D01*
X179607027Y-169368449D01*
X179368576Y-169527777D01*
X178608358Y-170287996D01*
X178407829Y-170287821D01*
X178027285Y-170445058D01*
X177735881Y-170735954D01*
X177577980Y-171116223D01*
X177577621Y-171527971D01*
X158949475Y-171527971D01*
X163478843Y-166998604D01*
X163679371Y-166998779D01*
X164059915Y-166841542D01*
X164351319Y-166550646D01*
X164500760Y-166190750D01*
X165571510Y-166190750D01*
X165571510Y-166331029D01*
X165668183Y-166564418D01*
X165846811Y-166743047D01*
X166080200Y-166839720D01*
X166920250Y-166839720D01*
X167079000Y-166680970D01*
X167079000Y-166032000D01*
X167333000Y-166032000D01*
X167333000Y-166680970D01*
X167491750Y-166839720D01*
X168331800Y-166839720D01*
X168565189Y-166743047D01*
X168743817Y-166564418D01*
X168840490Y-166331029D01*
X168840490Y-166190750D01*
X168681740Y-166032000D01*
X167333000Y-166032000D01*
X167079000Y-166032000D01*
X165730260Y-166032000D01*
X165571510Y-166190750D01*
X164500760Y-166190750D01*
X164509220Y-166170377D01*
X164509579Y-165758629D01*
X164352342Y-165378085D01*
X164344271Y-165370000D01*
X165616647Y-165370000D01*
X165571510Y-165478971D01*
X165571510Y-165619250D01*
X165730260Y-165778000D01*
X167079000Y-165778000D01*
X167079000Y-165758000D01*
X167333000Y-165758000D01*
X167333000Y-165778000D01*
X168681740Y-165778000D01*
X168840490Y-165619250D01*
X168840490Y-165478971D01*
X168750539Y-165261810D01*
X168801921Y-165186610D01*
X168852930Y-164934720D01*
X168852930Y-164335280D01*
X168808652Y-164099963D01*
X168744626Y-164000464D01*
X168801921Y-163916610D01*
X168852930Y-163664720D01*
X168852930Y-163065280D01*
X168808652Y-162829963D01*
X168744626Y-162730464D01*
X168801921Y-162646610D01*
X168852930Y-162394720D01*
X168852930Y-161795280D01*
X168808652Y-161559963D01*
X168669580Y-161343839D01*
X168457380Y-161198849D01*
X168205490Y-161147840D01*
X166206510Y-161147840D01*
X165971193Y-161192118D01*
X165755069Y-161331190D01*
X165610079Y-161543390D01*
X165559070Y-161795280D01*
X165559070Y-162394720D01*
X165603341Y-162630000D01*
X163833910Y-162630000D01*
X163681177Y-162566580D01*
X163269429Y-162566221D01*
X162888885Y-162723458D01*
X162597481Y-163014354D01*
X162439580Y-163394623D01*
X162439221Y-163806371D01*
X162596458Y-164186915D01*
X162692764Y-164283389D01*
X159969554Y-167006600D01*
X154508200Y-167006600D01*
X154273594Y-167053267D01*
X154226927Y-167062549D01*
X153988476Y-167221877D01*
X151480277Y-169730077D01*
X151320949Y-169968528D01*
X151265000Y-170249800D01*
X151265000Y-173764123D01*
X150933628Y-173901043D01*
X150402907Y-174430839D01*
X150115328Y-175123405D01*
X150114674Y-175873305D01*
X150401043Y-176566372D01*
X150930839Y-177097093D01*
X151623405Y-177384672D01*
X152373305Y-177385326D01*
X152707708Y-177247154D01*
X155024876Y-179564323D01*
X155263327Y-179723651D01*
X155309994Y-179732933D01*
X155544600Y-179779600D01*
X156241978Y-179779600D01*
X156241621Y-180189371D01*
X156283200Y-180290000D01*
X141970531Y-180290000D01*
X142465799Y-180085359D01*
X143207754Y-179344698D01*
X143609792Y-178376483D01*
X143610707Y-177328116D01*
X143210359Y-176359201D01*
X142469698Y-175617246D01*
X141501483Y-175215208D01*
X140453116Y-175214293D01*
X139484201Y-175614641D01*
X138742246Y-176355302D01*
X138340208Y-177323517D01*
X138339293Y-178371884D01*
X138739641Y-179340799D01*
X139480302Y-180082754D01*
X139979406Y-180290000D01*
X137960000Y-180290000D01*
X137960000Y-173460000D01*
X143500000Y-173460000D01*
X143771705Y-173405954D01*
X144002046Y-173252046D01*
X144155954Y-173021705D01*
X144210000Y-172750000D01*
X144210000Y-163738250D01*
X148615700Y-163738250D01*
X148615700Y-164229049D01*
X148712373Y-164462438D01*
X148891001Y-164641067D01*
X149124390Y-164737740D01*
X149714250Y-164737740D01*
X149873000Y-164578990D01*
X149873000Y-163579500D01*
X150127000Y-163579500D01*
X150127000Y-164578990D01*
X150285750Y-164737740D01*
X150875610Y-164737740D01*
X151108999Y-164641067D01*
X151287627Y-164462438D01*
X151384300Y-164229049D01*
X151384300Y-163738250D01*
X157615700Y-163738250D01*
X157615700Y-164229049D01*
X157712373Y-164462438D01*
X157891001Y-164641067D01*
X158124390Y-164737740D01*
X158714250Y-164737740D01*
X158873000Y-164578990D01*
X158873000Y-163579500D01*
X159127000Y-163579500D01*
X159127000Y-164578990D01*
X159285750Y-164737740D01*
X159875610Y-164737740D01*
X160108999Y-164641067D01*
X160287627Y-164462438D01*
X160384300Y-164229049D01*
X160384300Y-163738250D01*
X160225550Y-163579500D01*
X159127000Y-163579500D01*
X158873000Y-163579500D01*
X157774450Y-163579500D01*
X157615700Y-163738250D01*
X151384300Y-163738250D01*
X151225550Y-163579500D01*
X150127000Y-163579500D01*
X149873000Y-163579500D01*
X148774450Y-163579500D01*
X148615700Y-163738250D01*
X144210000Y-163738250D01*
X144210000Y-156000510D01*
X146353210Y-156000510D01*
X146353210Y-157999490D01*
X146397488Y-158234807D01*
X146536560Y-158450931D01*
X146748760Y-158595921D01*
X147000650Y-158646930D01*
X149265000Y-158646930D01*
X149265000Y-160249820D01*
X149250700Y-160249820D01*
X149015383Y-160294098D01*
X148799259Y-160433170D01*
X148654269Y-160645370D01*
X148603260Y-160897260D01*
X148603260Y-162197740D01*
X148647538Y-162433057D01*
X148689378Y-162498078D01*
X148615700Y-162675951D01*
X148615700Y-163166750D01*
X148774450Y-163325500D01*
X149873000Y-163325500D01*
X149873000Y-163305500D01*
X150127000Y-163305500D01*
X150127000Y-163325500D01*
X151225550Y-163325500D01*
X151384300Y-163166750D01*
X151384300Y-162675951D01*
X151311379Y-162499905D01*
X151345731Y-162449630D01*
X151396740Y-162197740D01*
X151396740Y-160897260D01*
X151352462Y-160661943D01*
X151213390Y-160445819D01*
X151001190Y-160300829D01*
X150749300Y-160249820D01*
X150735000Y-160249820D01*
X150735000Y-158646930D01*
X152499750Y-158646930D01*
X152735067Y-158602652D01*
X152951191Y-158463580D01*
X153096181Y-158251380D01*
X153147190Y-157999490D01*
X153147190Y-157735000D01*
X154175400Y-157735000D01*
X154456672Y-157679051D01*
X154695123Y-157519723D01*
X155559723Y-156655124D01*
X155719051Y-156416672D01*
X155720502Y-156409375D01*
X155775000Y-156135400D01*
X155775000Y-155206659D01*
X155790277Y-155229523D01*
X156078237Y-155517483D01*
X156048809Y-155536420D01*
X155903819Y-155748620D01*
X155852810Y-156000510D01*
X155852810Y-157999490D01*
X155897088Y-158234807D01*
X156036160Y-158450931D01*
X156248360Y-158595921D01*
X156500250Y-158646930D01*
X158265000Y-158646930D01*
X158265000Y-160249820D01*
X158250700Y-160249820D01*
X158015383Y-160294098D01*
X157799259Y-160433170D01*
X157654269Y-160645370D01*
X157603260Y-160897260D01*
X157603260Y-162197740D01*
X157647538Y-162433057D01*
X157689378Y-162498078D01*
X157615700Y-162675951D01*
X157615700Y-163166750D01*
X157774450Y-163325500D01*
X158873000Y-163325500D01*
X158873000Y-163305500D01*
X159127000Y-163305500D01*
X159127000Y-163325500D01*
X160225550Y-163325500D01*
X160384300Y-163166750D01*
X160384300Y-162675951D01*
X160311379Y-162499905D01*
X160345731Y-162449630D01*
X160396740Y-162197740D01*
X160396740Y-160897260D01*
X160352462Y-160661943D01*
X160213390Y-160445819D01*
X160001190Y-160300829D01*
X159749300Y-160249820D01*
X159735000Y-160249820D01*
X159735000Y-158646930D01*
X161999350Y-158646930D01*
X162234667Y-158602652D01*
X162450791Y-158463580D01*
X162595781Y-158251380D01*
X162646790Y-157999490D01*
X162646790Y-156000510D01*
X162602512Y-155765193D01*
X162463440Y-155549069D01*
X162251240Y-155404079D01*
X161999350Y-155353070D01*
X157992717Y-155353070D01*
X157045000Y-154405354D01*
X157045000Y-150605638D01*
X157178101Y-150660770D01*
X157294250Y-150660770D01*
X157364481Y-150590539D01*
X157257980Y-150847023D01*
X157257621Y-151258771D01*
X157414858Y-151639315D01*
X157527588Y-151752242D01*
X157415881Y-151863754D01*
X157257980Y-152244023D01*
X157257621Y-152655771D01*
X157414858Y-153036315D01*
X157705754Y-153327719D01*
X158086023Y-153485620D01*
X158497771Y-153485979D01*
X158878315Y-153328742D01*
X159148728Y-153058800D01*
X166065554Y-153058800D01*
X167214596Y-154207843D01*
X167214421Y-154408371D01*
X167371658Y-154788915D01*
X167662554Y-155080319D01*
X167784174Y-155130820D01*
X166442100Y-155130820D01*
X166206783Y-155175098D01*
X165990659Y-155314170D01*
X165845669Y-155526370D01*
X165794660Y-155778260D01*
X165794660Y-157078740D01*
X165838938Y-157314057D01*
X165881079Y-157379546D01*
X165845669Y-157431370D01*
X165794660Y-157683260D01*
X165794660Y-158983740D01*
X165838938Y-159219057D01*
X165978010Y-159435181D01*
X166190210Y-159580171D01*
X166442100Y-159631180D01*
X167075334Y-159631180D01*
X170058876Y-162614723D01*
X170153929Y-162678235D01*
X170297328Y-162774051D01*
X170578600Y-162830000D01*
X171194715Y-162830000D01*
X171147070Y-163065280D01*
X171147070Y-163664720D01*
X171191348Y-163900037D01*
X171249830Y-163990920D01*
X171159510Y-164208971D01*
X171159510Y-164349250D01*
X171318258Y-164507998D01*
X171170652Y-164507998D01*
X171021777Y-164446180D01*
X170610029Y-164445821D01*
X170229485Y-164603058D01*
X169938081Y-164893954D01*
X169780180Y-165274223D01*
X169779821Y-165685971D01*
X169937058Y-166066515D01*
X170227954Y-166357919D01*
X170608223Y-166515820D01*
X170855936Y-166516036D01*
X170907734Y-166550646D01*
X170957728Y-166584051D01*
X171239000Y-166640000D01*
X171320021Y-166640000D01*
X171330420Y-166656161D01*
X171542620Y-166801151D01*
X171794510Y-166852160D01*
X173793490Y-166852160D01*
X174028807Y-166807882D01*
X174244931Y-166668810D01*
X174389921Y-166456610D01*
X174440930Y-166204720D01*
X174440930Y-165605280D01*
X174396652Y-165369963D01*
X174338170Y-165279080D01*
X174428490Y-165061029D01*
X174428490Y-164920750D01*
X174269740Y-164762000D01*
X172921000Y-164762000D01*
X172921000Y-164782000D01*
X172667000Y-164782000D01*
X172667000Y-164762000D01*
X172647000Y-164762000D01*
X172647000Y-164508000D01*
X172667000Y-164508000D01*
X172667000Y-164488000D01*
X172921000Y-164488000D01*
X172921000Y-164508000D01*
X174269740Y-164508000D01*
X174428490Y-164349250D01*
X174428490Y-164250000D01*
X174735049Y-164250000D01*
X174768635Y-164283645D01*
X175185644Y-164456803D01*
X175637175Y-164457197D01*
X176054486Y-164284767D01*
X176374045Y-163965765D01*
X176547203Y-163548756D01*
X176547597Y-163097225D01*
X176375167Y-162679914D01*
X176056165Y-162360355D01*
X175639156Y-162187197D01*
X175187625Y-162186803D01*
X174770314Y-162359233D01*
X174649336Y-162480000D01*
X174423660Y-162480000D01*
X174440930Y-162394720D01*
X174440930Y-161795280D01*
X174396652Y-161559963D01*
X174257580Y-161343839D01*
X174045380Y-161198849D01*
X173793490Y-161147840D01*
X171794510Y-161147840D01*
X171559193Y-161192118D01*
X171343069Y-161331190D01*
X171323384Y-161360000D01*
X170883047Y-161360000D01*
X168574440Y-159051394D01*
X168588140Y-158983740D01*
X168588140Y-158619250D01*
X168807100Y-158619250D01*
X168807100Y-159110049D01*
X168903773Y-159343438D01*
X169082401Y-159522067D01*
X169315790Y-159618740D01*
X169905650Y-159618740D01*
X170064400Y-159459990D01*
X170064400Y-158460500D01*
X170318400Y-158460500D01*
X170318400Y-159459990D01*
X170477150Y-159618740D01*
X171067010Y-159618740D01*
X171300399Y-159522067D01*
X171479027Y-159343438D01*
X171575700Y-159110049D01*
X171575700Y-158619250D01*
X171807100Y-158619250D01*
X171807100Y-159110049D01*
X171903773Y-159343438D01*
X172082401Y-159522067D01*
X172315790Y-159618740D01*
X172905650Y-159618740D01*
X173064400Y-159459990D01*
X173064400Y-158460500D01*
X173318400Y-158460500D01*
X173318400Y-159459990D01*
X173477150Y-159618740D01*
X174067010Y-159618740D01*
X174300399Y-159522067D01*
X174479027Y-159343438D01*
X174575700Y-159110049D01*
X174575700Y-158619250D01*
X174416950Y-158460500D01*
X173318400Y-158460500D01*
X173064400Y-158460500D01*
X171965850Y-158460500D01*
X171807100Y-158619250D01*
X171575700Y-158619250D01*
X171416950Y-158460500D01*
X170318400Y-158460500D01*
X170064400Y-158460500D01*
X168965850Y-158460500D01*
X168807100Y-158619250D01*
X168588140Y-158619250D01*
X168588140Y-157683260D01*
X168543862Y-157447943D01*
X168501721Y-157382454D01*
X168537131Y-157330630D01*
X168570976Y-157163500D01*
X168810609Y-157163500D01*
X168838938Y-157314057D01*
X168880778Y-157379078D01*
X168807100Y-157556951D01*
X168807100Y-158047750D01*
X168965850Y-158206500D01*
X170064400Y-158206500D01*
X170064400Y-158186500D01*
X170318400Y-158186500D01*
X170318400Y-158206500D01*
X171416950Y-158206500D01*
X171575700Y-158047750D01*
X171575700Y-157556951D01*
X171502779Y-157380905D01*
X171537131Y-157330630D01*
X171588140Y-157078740D01*
X171588140Y-155778260D01*
X171794660Y-155778260D01*
X171794660Y-157078740D01*
X171838938Y-157314057D01*
X171880778Y-157379078D01*
X171807100Y-157556951D01*
X171807100Y-158047750D01*
X171965850Y-158206500D01*
X173064400Y-158206500D01*
X173064400Y-158186500D01*
X173318400Y-158186500D01*
X173318400Y-158206500D01*
X174416950Y-158206500D01*
X174575700Y-158047750D01*
X174575700Y-157556951D01*
X174502779Y-157380905D01*
X174537131Y-157330630D01*
X174540600Y-157313500D01*
X175219295Y-157313500D01*
X175219300Y-157313501D01*
X175221281Y-157313107D01*
X175236444Y-157319403D01*
X175687975Y-157319797D01*
X176105286Y-157147367D01*
X176424845Y-156828365D01*
X176598003Y-156411356D01*
X176598397Y-155959825D01*
X176425967Y-155542514D01*
X176106965Y-155222955D01*
X175689956Y-155049797D01*
X175238425Y-155049403D01*
X174821114Y-155221833D01*
X174526489Y-155515945D01*
X174404790Y-155326819D01*
X174192590Y-155181829D01*
X173940700Y-155130820D01*
X172442100Y-155130820D01*
X172206783Y-155175098D01*
X171990659Y-155314170D01*
X171845669Y-155526370D01*
X171794660Y-155778260D01*
X171588140Y-155778260D01*
X171543862Y-155542943D01*
X171404790Y-155326819D01*
X171192590Y-155181829D01*
X170940700Y-155130820D01*
X170926400Y-155130820D01*
X170926400Y-154595800D01*
X170870451Y-154314528D01*
X170870451Y-154314527D01*
X170711123Y-154076076D01*
X167169123Y-150534077D01*
X166930672Y-150374749D01*
X166649400Y-150318800D01*
X159021518Y-150318800D01*
X158879846Y-150176881D01*
X158499577Y-150018980D01*
X158490590Y-150018972D01*
X158490590Y-149596510D01*
X158331840Y-149437760D01*
X157707000Y-149437760D01*
X157707000Y-149457760D01*
X157453000Y-149457760D01*
X157453000Y-149437760D01*
X157433000Y-149437760D01*
X157433000Y-149183760D01*
X157453000Y-149183760D01*
X157453000Y-148119500D01*
X157707000Y-148119500D01*
X157707000Y-149183760D01*
X158331840Y-149183760D01*
X158490590Y-149025010D01*
X158490590Y-148469440D01*
X158393917Y-148236051D01*
X158215288Y-148057423D01*
X157981899Y-147960750D01*
X157865750Y-147960750D01*
X157707000Y-148119500D01*
X157453000Y-148119500D01*
X157294250Y-147960750D01*
X157178101Y-147960750D01*
X156944712Y-148057423D01*
X156935703Y-148066432D01*
X156837480Y-147999319D01*
X156585590Y-147948310D01*
X156034410Y-147948310D01*
X155799093Y-147992588D01*
X155674740Y-148072607D01*
X155567480Y-147999319D01*
X155315590Y-147948310D01*
X154764410Y-147948310D01*
X154529093Y-147992588D01*
X154404740Y-148072607D01*
X154297480Y-147999319D01*
X154045590Y-147948310D01*
X153494410Y-147948310D01*
X153259093Y-147992588D01*
X153134740Y-148072607D01*
X153027480Y-147999319D01*
X152775590Y-147948310D01*
X152224410Y-147948310D01*
X151989093Y-147992588D01*
X151864740Y-148072607D01*
X151757480Y-147999319D01*
X151505590Y-147948310D01*
X150954410Y-147948310D01*
X150719093Y-147992588D01*
X150594740Y-148072607D01*
X150487480Y-147999319D01*
X150235590Y-147948310D01*
X149684410Y-147948310D01*
X149449093Y-147992588D01*
X149324740Y-148072607D01*
X149217480Y-147999319D01*
X148965590Y-147948310D01*
X148414410Y-147948310D01*
X148179093Y-147992588D01*
X148054740Y-148072607D01*
X147947480Y-147999319D01*
X147695590Y-147948310D01*
X147144410Y-147948310D01*
X146909093Y-147992588D01*
X146692969Y-148131660D01*
X146547979Y-148343860D01*
X146496970Y-148595750D01*
X146496970Y-150025770D01*
X146541248Y-150261087D01*
X146680320Y-150477211D01*
X146685000Y-150480409D01*
X146685000Y-150874400D01*
X146740949Y-151155672D01*
X146900277Y-151394123D01*
X148298876Y-152792723D01*
X148513056Y-152935833D01*
X148537328Y-152952051D01*
X148818600Y-153008000D01*
X153042882Y-153008000D01*
X153184554Y-153149919D01*
X153564823Y-153307820D01*
X153976571Y-153308179D01*
X154305000Y-153172475D01*
X154305000Y-155830953D01*
X153870954Y-156265000D01*
X153147190Y-156265000D01*
X153147190Y-156000510D01*
X153102912Y-155765193D01*
X152963840Y-155549069D01*
X152751640Y-155404079D01*
X152499750Y-155353070D01*
X147000650Y-155353070D01*
X146765333Y-155397348D01*
X146549209Y-155536420D01*
X146404219Y-155748620D01*
X146353210Y-156000510D01*
X144210000Y-156000510D01*
X144210000Y-152395780D01*
X145829297Y-154015077D01*
X145829203Y-154123375D01*
X146001633Y-154540686D01*
X146320635Y-154860245D01*
X146737644Y-155033403D01*
X147189175Y-155033797D01*
X147606486Y-154861367D01*
X147926045Y-154542365D01*
X148099203Y-154125356D01*
X148099597Y-153673825D01*
X147927167Y-153256514D01*
X147608165Y-152936955D01*
X147191156Y-152763797D01*
X147081080Y-152763701D01*
X145131600Y-150814220D01*
X145131600Y-145738250D01*
X160115700Y-145738250D01*
X160115700Y-146229049D01*
X160212373Y-146462438D01*
X160391001Y-146641067D01*
X160624390Y-146737740D01*
X161214250Y-146737740D01*
X161373000Y-146578990D01*
X161373000Y-145579500D01*
X161627000Y-145579500D01*
X161627000Y-146578990D01*
X161785750Y-146737740D01*
X162375610Y-146737740D01*
X162608999Y-146641067D01*
X162787627Y-146462438D01*
X162884300Y-146229049D01*
X162884300Y-145738250D01*
X162725550Y-145579500D01*
X161627000Y-145579500D01*
X161373000Y-145579500D01*
X160274450Y-145579500D01*
X160115700Y-145738250D01*
X145131600Y-145738250D01*
X145131600Y-135791380D01*
X145749820Y-136409600D01*
X145749820Y-137249300D01*
X145794098Y-137484617D01*
X145933170Y-137700741D01*
X146145370Y-137845731D01*
X146162500Y-137849200D01*
X146162500Y-138335295D01*
X146162499Y-138335300D01*
X146204610Y-138547000D01*
X146229867Y-138673975D01*
X146361920Y-138871607D01*
X146421710Y-138961090D01*
X146496970Y-139036350D01*
X146496970Y-140404250D01*
X146535000Y-140606362D01*
X146535000Y-142085995D01*
X146534999Y-142086000D01*
X146576393Y-142294098D01*
X146602367Y-142424675D01*
X146761275Y-142662499D01*
X146794210Y-142711790D01*
X148255708Y-144173287D01*
X148255710Y-144173290D01*
X148468090Y-144315197D01*
X148542825Y-144365133D01*
X148881500Y-144432501D01*
X148881505Y-144432500D01*
X160147433Y-144432500D01*
X160147538Y-144433057D01*
X160189378Y-144498078D01*
X160115700Y-144675951D01*
X160115700Y-145166750D01*
X160274450Y-145325500D01*
X161373000Y-145325500D01*
X161373000Y-145305500D01*
X161627000Y-145305500D01*
X161627000Y-145325500D01*
X162725550Y-145325500D01*
X162787235Y-145263815D01*
X165349208Y-147825787D01*
X165349210Y-147825790D01*
X165636325Y-148017633D01*
X165669958Y-148024323D01*
X165975000Y-148085001D01*
X165975005Y-148085000D01*
X172404593Y-148085000D01*
X172406235Y-148086645D01*
X172823244Y-148259803D01*
X173274775Y-148260197D01*
X173692086Y-148087767D01*
X174011645Y-147768765D01*
X174184803Y-147351756D01*
X174185197Y-146900225D01*
X174012767Y-146482914D01*
X173693765Y-146163355D01*
X173276756Y-145990197D01*
X172825225Y-145989803D01*
X172407914Y-146162233D01*
X172254880Y-146315000D01*
X166341579Y-146315000D01*
X162948290Y-142921710D01*
X162911698Y-142897260D01*
X162894589Y-142885828D01*
X162852462Y-142661943D01*
X162713390Y-142445819D01*
X162501190Y-142300829D01*
X162318335Y-142263800D01*
X162618682Y-142263800D01*
X162760354Y-142405719D01*
X163140623Y-142563620D01*
X163552371Y-142563979D01*
X163932915Y-142406742D01*
X164224319Y-142115846D01*
X164382220Y-141735577D01*
X164382579Y-141323829D01*
X164225342Y-140943285D01*
X163934446Y-140651881D01*
X163554177Y-140493980D01*
X163142429Y-140493621D01*
X162761885Y-140650858D01*
X162618693Y-140793800D01*
X158357962Y-140793800D01*
X158452021Y-140656140D01*
X158503030Y-140404250D01*
X158503030Y-138974230D01*
X158458752Y-138738913D01*
X158455076Y-138733200D01*
X173241076Y-138733200D01*
X173351423Y-138779020D01*
X173763171Y-138779379D01*
X174143715Y-138622142D01*
X174271000Y-138495079D01*
X174271000Y-147504600D01*
X174319971Y-147750790D01*
X174326949Y-147785872D01*
X174486277Y-148024323D01*
X184456070Y-157994117D01*
X184456070Y-159848740D01*
X184500348Y-160084057D01*
X184639420Y-160300181D01*
X184851620Y-160445171D01*
X185103510Y-160496180D01*
X186899290Y-160496180D01*
X187134607Y-160451902D01*
X187350731Y-160312830D01*
X187495721Y-160100630D01*
X187498711Y-160085864D01*
X187636620Y-160300181D01*
X187848820Y-160445171D01*
X188100710Y-160496180D01*
X189896490Y-160496180D01*
X190131807Y-160451902D01*
X190347931Y-160312830D01*
X190492921Y-160100630D01*
X190543930Y-159848740D01*
X190543930Y-159776420D01*
X190645370Y-159845731D01*
X190897260Y-159896740D01*
X192197740Y-159896740D01*
X192433057Y-159852462D01*
X192498078Y-159810622D01*
X192675951Y-159884300D01*
X193166750Y-159884300D01*
X193325500Y-159725550D01*
X193325500Y-158627000D01*
X193579500Y-158627000D01*
X193579500Y-159725550D01*
X193738250Y-159884300D01*
X194229049Y-159884300D01*
X194462438Y-159787627D01*
X194641067Y-159608999D01*
X194737740Y-159375610D01*
X194737740Y-158785750D01*
X194578990Y-158627000D01*
X193579500Y-158627000D01*
X193325500Y-158627000D01*
X193305500Y-158627000D01*
X193305500Y-158373000D01*
X193325500Y-158373000D01*
X193325500Y-157274450D01*
X193579500Y-157274450D01*
X193579500Y-158373000D01*
X194578990Y-158373000D01*
X194737740Y-158214250D01*
X194737740Y-157624390D01*
X194641067Y-157391001D01*
X194462438Y-157212373D01*
X194229049Y-157115700D01*
X193738250Y-157115700D01*
X193579500Y-157274450D01*
X193325500Y-157274450D01*
X193166750Y-157115700D01*
X192675951Y-157115700D01*
X192499905Y-157188621D01*
X192449630Y-157154269D01*
X192197740Y-157103260D01*
X190897260Y-157103260D01*
X190661943Y-157147538D01*
X190543930Y-157223477D01*
X190543930Y-157151260D01*
X190499652Y-156915943D01*
X190360580Y-156699819D01*
X190148380Y-156554829D01*
X189896490Y-156503820D01*
X188100710Y-156503820D01*
X187865393Y-156548098D01*
X187649269Y-156687170D01*
X187504279Y-156899370D01*
X187501289Y-156914136D01*
X187363380Y-156699819D01*
X187151180Y-156554829D01*
X186899290Y-156503820D01*
X185103510Y-156503820D01*
X185053986Y-156513139D01*
X181376396Y-152835550D01*
X181625000Y-152885001D01*
X181625005Y-152885000D01*
X184456070Y-152885000D01*
X184456070Y-153348740D01*
X184500348Y-153584057D01*
X184639420Y-153800181D01*
X184851620Y-153945171D01*
X185103510Y-153996180D01*
X186899290Y-153996180D01*
X187134607Y-153951902D01*
X187350731Y-153812830D01*
X187495721Y-153600630D01*
X187498711Y-153585864D01*
X187636620Y-153800181D01*
X187848820Y-153945171D01*
X188100710Y-153996180D01*
X189896490Y-153996180D01*
X190131807Y-153951902D01*
X190347931Y-153812830D01*
X190492921Y-153600630D01*
X190543930Y-153348740D01*
X190543930Y-153276420D01*
X190645370Y-153345731D01*
X190897260Y-153396740D01*
X192197740Y-153396740D01*
X192433057Y-153352462D01*
X192498078Y-153310622D01*
X192675951Y-153384300D01*
X193166750Y-153384300D01*
X193325500Y-153225550D01*
X193325500Y-152127000D01*
X193579500Y-152127000D01*
X193579500Y-153225550D01*
X193738250Y-153384300D01*
X194229049Y-153384300D01*
X194462438Y-153287627D01*
X194641067Y-153108999D01*
X194737740Y-152875610D01*
X194737740Y-152285750D01*
X194578990Y-152127000D01*
X193579500Y-152127000D01*
X193325500Y-152127000D01*
X193305500Y-152127000D01*
X193305500Y-151873000D01*
X193325500Y-151873000D01*
X193325500Y-150774450D01*
X193579500Y-150774450D01*
X193579500Y-151873000D01*
X194578990Y-151873000D01*
X194737740Y-151714250D01*
X194737740Y-151124390D01*
X194641067Y-150891001D01*
X194462438Y-150712373D01*
X194229049Y-150615700D01*
X193738250Y-150615700D01*
X193579500Y-150774450D01*
X193325500Y-150774450D01*
X193166750Y-150615700D01*
X192675951Y-150615700D01*
X192499905Y-150688621D01*
X192449630Y-150654269D01*
X192197740Y-150603260D01*
X190897260Y-150603260D01*
X190661943Y-150647538D01*
X190543930Y-150723477D01*
X190543930Y-150651260D01*
X190499652Y-150415943D01*
X190360580Y-150199819D01*
X190148380Y-150054829D01*
X189896490Y-150003820D01*
X188100710Y-150003820D01*
X187865393Y-150048098D01*
X187649269Y-150187170D01*
X187504279Y-150399370D01*
X187501289Y-150414136D01*
X187363380Y-150199819D01*
X187151180Y-150054829D01*
X186899290Y-150003820D01*
X185103510Y-150003820D01*
X184868193Y-150048098D01*
X184652069Y-150187170D01*
X184507079Y-150399370D01*
X184456070Y-150651260D01*
X184456070Y-151115000D01*
X181991579Y-151115000D01*
X177885103Y-147008523D01*
X177885197Y-146900225D01*
X177712767Y-146482914D01*
X177393765Y-146163355D01*
X176976756Y-145990197D01*
X176525225Y-145989803D01*
X176107914Y-146162233D01*
X175788355Y-146481235D01*
X175741000Y-146595278D01*
X175741000Y-145674775D01*
X177289803Y-145674775D01*
X177462233Y-146092086D01*
X177781235Y-146411645D01*
X178198244Y-146584803D01*
X178649775Y-146585197D01*
X179067086Y-146412767D01*
X179094901Y-146385000D01*
X184456070Y-146385000D01*
X184456070Y-146848740D01*
X184500348Y-147084057D01*
X184639420Y-147300181D01*
X184851620Y-147445171D01*
X185103510Y-147496180D01*
X186899290Y-147496180D01*
X187134607Y-147451902D01*
X187350731Y-147312830D01*
X187495721Y-147100630D01*
X187498711Y-147085864D01*
X187636620Y-147300181D01*
X187848820Y-147445171D01*
X188100710Y-147496180D01*
X189896490Y-147496180D01*
X190131807Y-147451902D01*
X190347931Y-147312830D01*
X190492921Y-147100630D01*
X190543930Y-146848740D01*
X190543930Y-146776420D01*
X190645370Y-146845731D01*
X190897260Y-146896740D01*
X192197740Y-146896740D01*
X192433057Y-146852462D01*
X192498078Y-146810622D01*
X192675951Y-146884300D01*
X193166750Y-146884300D01*
X193325500Y-146725550D01*
X193325500Y-145627000D01*
X193579500Y-145627000D01*
X193579500Y-146725550D01*
X193738250Y-146884300D01*
X194229049Y-146884300D01*
X194462438Y-146787627D01*
X194641067Y-146608999D01*
X194737740Y-146375610D01*
X194737740Y-145785750D01*
X194578990Y-145627000D01*
X193579500Y-145627000D01*
X193325500Y-145627000D01*
X193305500Y-145627000D01*
X193305500Y-145373000D01*
X193325500Y-145373000D01*
X193325500Y-144274450D01*
X193579500Y-144274450D01*
X193579500Y-145373000D01*
X194578990Y-145373000D01*
X194737740Y-145214250D01*
X194737740Y-144624390D01*
X194641067Y-144391001D01*
X194462438Y-144212373D01*
X194229049Y-144115700D01*
X193738250Y-144115700D01*
X193579500Y-144274450D01*
X193325500Y-144274450D01*
X193166750Y-144115700D01*
X192675951Y-144115700D01*
X192499905Y-144188621D01*
X192449630Y-144154269D01*
X192197740Y-144103260D01*
X190897260Y-144103260D01*
X190661943Y-144147538D01*
X190543930Y-144223477D01*
X190543930Y-144151260D01*
X190499652Y-143915943D01*
X190360580Y-143699819D01*
X190148380Y-143554829D01*
X189896490Y-143503820D01*
X188100710Y-143503820D01*
X187865393Y-143548098D01*
X187649269Y-143687170D01*
X187504279Y-143899370D01*
X187501289Y-143914136D01*
X187363380Y-143699819D01*
X187151180Y-143554829D01*
X186899290Y-143503820D01*
X185103510Y-143503820D01*
X184868193Y-143548098D01*
X184652069Y-143687170D01*
X184507079Y-143899370D01*
X184456070Y-144151260D01*
X184456070Y-144615000D01*
X179195189Y-144615000D01*
X179068765Y-144488355D01*
X178651756Y-144315197D01*
X178200225Y-144314803D01*
X177782914Y-144487233D01*
X177463355Y-144806235D01*
X177290197Y-145223244D01*
X177289803Y-145674775D01*
X175741000Y-145674775D01*
X175741000Y-136321800D01*
X175685051Y-136040528D01*
X175610582Y-135929077D01*
X175525723Y-135802076D01*
X174357323Y-134633677D01*
X174118872Y-134474349D01*
X173837600Y-134418400D01*
X157505047Y-134418400D01*
X154442955Y-131356309D01*
X154645360Y-131053388D01*
X154855690Y-131368169D01*
X155341871Y-131693025D01*
X155915360Y-131807099D01*
X156488849Y-131693025D01*
X156975030Y-131368169D01*
X157185360Y-131053388D01*
X157395690Y-131368169D01*
X157881871Y-131693025D01*
X158455360Y-131807099D01*
X159028849Y-131693025D01*
X159515030Y-131368169D01*
X159725360Y-131053388D01*
X159935690Y-131368169D01*
X160421871Y-131693025D01*
X160995360Y-131807099D01*
X161568849Y-131693025D01*
X162055030Y-131368169D01*
X162265360Y-131053388D01*
X162475690Y-131368169D01*
X162961871Y-131693025D01*
X163535360Y-131807099D01*
X164108849Y-131693025D01*
X164595030Y-131368169D01*
X164805360Y-131053388D01*
X165015690Y-131368169D01*
X165501871Y-131693025D01*
X166075360Y-131807099D01*
X166648849Y-131693025D01*
X167135030Y-131368169D01*
X167345360Y-131053388D01*
X167555690Y-131368169D01*
X168041871Y-131693025D01*
X168615360Y-131807099D01*
X169188849Y-131693025D01*
X169675030Y-131368169D01*
X169885360Y-131053388D01*
X170095690Y-131368169D01*
X170581871Y-131693025D01*
X171155360Y-131807099D01*
X171728849Y-131693025D01*
X172215030Y-131368169D01*
X172425360Y-131053388D01*
X172635690Y-131368169D01*
X173121871Y-131693025D01*
X173695360Y-131807099D01*
X174268849Y-131693025D01*
X174755030Y-131368169D01*
X174965360Y-131053388D01*
X175175690Y-131368169D01*
X175661871Y-131693025D01*
X176235360Y-131807099D01*
X176808849Y-131693025D01*
X177295030Y-131368169D01*
X177619886Y-130881988D01*
X177733960Y-130308499D01*
X177733960Y-130249781D01*
X177619886Y-129676292D01*
X177295030Y-129190111D01*
X177024188Y-129009140D01*
X177295030Y-128828169D01*
X177619886Y-128341988D01*
X177733960Y-127768499D01*
X177733960Y-127709781D01*
X177619886Y-127136292D01*
X177295030Y-126650111D01*
X176808849Y-126325255D01*
X176235360Y-126211181D01*
X175661871Y-126325255D01*
X175175690Y-126650111D01*
X174965360Y-126964892D01*
X174755030Y-126650111D01*
X174268849Y-126325255D01*
X173695360Y-126211181D01*
X173121871Y-126325255D01*
X172635690Y-126650111D01*
X172425360Y-126964892D01*
X172215030Y-126650111D01*
X171728849Y-126325255D01*
X171155360Y-126211181D01*
X170581871Y-126325255D01*
X170095690Y-126650111D01*
X169885360Y-126964892D01*
X169675030Y-126650111D01*
X169188849Y-126325255D01*
X168615360Y-126211181D01*
X168041871Y-126325255D01*
X167555690Y-126650111D01*
X167345360Y-126964892D01*
X167135030Y-126650111D01*
X166648849Y-126325255D01*
X166075360Y-126211181D01*
X165501871Y-126325255D01*
X165015690Y-126650111D01*
X164805360Y-126964892D01*
X164595030Y-126650111D01*
X164108849Y-126325255D01*
X163535360Y-126211181D01*
X162961871Y-126325255D01*
X162475690Y-126650111D01*
X162265360Y-126964892D01*
X162055030Y-126650111D01*
X161568849Y-126325255D01*
X160995360Y-126211181D01*
X160421871Y-126325255D01*
X159935690Y-126650111D01*
X159725360Y-126964892D01*
X159515030Y-126650111D01*
X159028849Y-126325255D01*
X158455360Y-126211181D01*
X157881871Y-126325255D01*
X157395690Y-126650111D01*
X157185360Y-126964892D01*
X156975030Y-126650111D01*
X156488849Y-126325255D01*
X155915360Y-126211181D01*
X155341871Y-126325255D01*
X154855690Y-126650111D01*
X154645360Y-126964892D01*
X154435030Y-126650111D01*
X153948849Y-126325255D01*
X153375360Y-126211181D01*
X152801871Y-126325255D01*
X152315690Y-126650111D01*
X152099696Y-126973368D01*
X152042181Y-126850650D01*
X151610307Y-126456452D01*
X151194386Y-126284182D01*
X150962360Y-126405323D01*
X150962360Y-127612140D01*
X150982360Y-127612140D01*
X150982360Y-127866140D01*
X150962360Y-127866140D01*
X150962360Y-127886140D01*
X150708360Y-127886140D01*
X150708360Y-127866140D01*
X150688360Y-127866140D01*
X150688360Y-127612140D01*
X150708360Y-127612140D01*
X150708360Y-126405323D01*
X150476334Y-126284182D01*
X150060413Y-126456452D01*
X149628539Y-126850650D01*
X149571024Y-126973368D01*
X149355030Y-126650111D01*
X148868849Y-126325255D01*
X148295360Y-126211181D01*
X147721871Y-126325255D01*
X147235690Y-126650111D01*
X147025360Y-126964892D01*
X146815030Y-126650111D01*
X146328849Y-126325255D01*
X145755360Y-126211181D01*
X145181871Y-126325255D01*
X144695690Y-126650111D01*
X144537612Y-126886692D01*
X144362585Y-126921507D01*
X144075470Y-127113350D01*
X144075468Y-127113353D01*
X143620810Y-127568010D01*
X143445868Y-127829831D01*
X143210147Y-127259342D01*
X142469557Y-126517458D01*
X141501433Y-126115458D01*
X140453166Y-126114543D01*
X139484342Y-126514853D01*
X138742458Y-127255443D01*
X138340458Y-128223567D01*
X138339543Y-129271834D01*
X138739853Y-130240658D01*
X139480443Y-130982542D01*
X140448567Y-131384542D01*
X141496834Y-131385457D01*
X142465658Y-130985147D01*
X143207542Y-130244557D01*
X143361600Y-129873544D01*
X143361600Y-132540000D01*
X137960000Y-132540000D01*
X137960000Y-125710000D01*
X178540000Y-125710000D01*
X178540000Y-140500000D01*
M02*
